<svg xmlns="http://www.w3.org/2000/svg" viewBox="0 0 1268.83871 695.16129"><defs><style>.a,.f{fill:#2e3191;}.b,.n{fill:#fff;}.b,.f{fill-rule:evenodd;}.aa,.ab,.ac,.c,.d,.e,.g,.h,.i,.j,.k,.l,.m,.o,.p,.q,.r,.s,.t,.u,.v,.w,.x,.y,.z{fill:none;}.aa,.ab,.c,.d,.e,.g,.h,.i,.j,.k,.l,.m,.o,.p,.q,.r,.s,.t,.u,.w,.x,.y,.z{stroke:#2e3191;}.aa,.ab,.c,.d,.e,.g,.h,.i,.j,.k,.l,.m,.o,.p,.q,.r,.s,.t,.u,.v,.w,.x,.y,.z{stroke-miterlimit:2.61313;}.c{stroke-width:4.52551px;}.d{stroke-width:4.52962px;}.e{stroke-width:4.52624px;}.g{stroke-width:1.94945px;}.h{stroke-width:1.94775px;}.i{stroke-width:1.89536px;}.j{stroke-width:1.88552px;}.k{stroke-width:1.1376px;}.l{stroke-width:1.13733px;}.m{stroke-width:1.13712px;}.o{stroke-width:1.1404px;}.p{stroke-width:1.14282px;}.q{stroke-width:1.13637px;}.r{stroke-width:1.13356px;}.s{stroke-width:1.81949px;}.t{stroke-width:1.83827px;}.u{stroke-width:0.75041px;}.v{stroke:#fff;stroke-width:1.2458px;}.w{stroke-width:1.19904px;stroke-dasharray:2.39516 3.60315;}.x{stroke-width:1.349px;stroke-dasharray:2.70757 4.04053;}.y{stroke-width:1.70619px;}.z{stroke-width:4.51744px;}.aa{stroke-width:3.07067px;}.ab{stroke-width:4.52085px;}</style></defs><title>indian_institutes_of-technology-logo-freelogovectors.net</title><path class="a" d="M725.16983,133.87345q41.8384,0,83.67683,0,0,183.56379.03019,367.12759-41.8837.04527-83.707,0Q725.2151,317.43725,725.16983,133.87345Z" transform="translate(-11.16129 -52.41935)"/><path class="a" d="M862.27667,133.87345h83.67684V501.03122H862.27667Q862.2314,317.42216,862.27667,133.87345Z" transform="translate(-11.16129 -52.41935)"/><path class="a" d="M976.14,207.01522c.18112-24.39066-.15093-48.81149.18112-73.20214,86.00119.18112,172.03257-.06038,258.03376.12074q-.09055,36.5407,0,73.0814c-29.06955.12074-58.1391.03018-87.20865.06037V501.001q-41.83842.04527-83.707,0,.04527-146.97781.03018-293.92545C1034.33943,207.0454,1005.23969,207.136,976.14,207.01522Z" transform="translate(-11.16129 -52.41935)"/><path class="a" d="M744.39859,516.03389c14.61024-.18112,29.25067-.06037,43.8911-.09056.18112,43.4383.03019,86.90678.09056,130.34508H744.42878C744.39859,602.8803,744.48915,559.442,744.39859,516.03389Z" transform="translate(-11.16129 -52.41935)"/><path class="a" d="M854.45838,536.56067c7.66736-12.799,22.338-19.50044,36.55579-21.97573a112.76812,112.76812,0,0,1,67.76858,9.44836c-4.34685,10.686-8.81444,21.31163-13.22166,31.96745-14.15745-6.52028-30.00533-11.71235-45.73247-8.60314-4.34685.4528-9.8106,5.07132-7.03345,9.75022,3.89406,4.82983,10.74638,4.95058,16.30069,6.61083,15.72714,3.562,33.32584,5.343,45.52116,17.08553,11.07843,10.0219,11.95383,27.49986,6.27878,40.57059-6.88251,15.51583-23.6058,23.81711-39.63481,26.383-25.20568,3.71293-51.83013.12074-74.53034-11.652,4.70909-10.74638,9.29743-21.55313,14.39894-32.11838,16.361,8.63332,35.4087,14.12725,53.94318,10.62563,6.00711-.27168,8.18053-9.02575,2.35455-11.169-18.23262-7.87866-40.29891-6.58065-56.3581-19.56082C846.67028,573.11646,845.493,551.17091,854.45838,536.56067Z" transform="translate(-11.16129 -52.41935)"/><path class="a" d="M1022.86858,516.03389c12.04439-.15093,24.08879-.09056,36.16337-.09056q21.14561,34.59367,42.261,69.18734c14.30838-22.76058,27.6206-46.09471,41.446-69.15715,12.04439-.06038,24.119-.03019,36.22374,0,.06037,43.4383.27167,86.87659.332,130.34508q-20.01362-.04528-40.02723-.03019c-.18112-19.65137-.15094-39.27257-.42261-58.92394-9.75023,15.546-18.776,31.54484-28.28471,47.24179-6.49008-.06037-12.95-.06037-19.34951-.06037-9.41817-15.09323-18.65523-30.277-28.164-45.30986-.36223,19.04765.18112,38.09529-.332,57.14294-13.282-.18112-26.56407-.03018-39.81592-.15093Q1022.89877,581.16115,1022.86858,516.03389Z" transform="translate(-11.16129 -52.41935)"/><path class="b" d="M421.67372,99.40151l-30.3142-9.4369-14.05859,30.42253a244.13675,244.13675,0,0,0-31.36712-4.70784l-4.4923-33.19976L309.683,82.6154l-4.89472,33.05548a243.63521,243.63521,0,0,0-28.215,4.01264L262.93911,89.08594,232.49553,98.111l4.59951,33.18486a242.21842,242.21842,0,0,0-25.81445,11.847l-21.83774-25.72732-26.68356,17.19257,13.8952,30.9043a244.29435,244.29435,0,0,0-21.24457,18.49471l-28.54616-18.81308-20.785,23.97629,22.32177,26.12115a243.46116,243.46116,0,0,0-15.05,23.489L80.21979,228.58173l-13.20972,28.8349,29.202,19.106A239.85908,239.85908,0,0,0,88.504,303.00881l-35.24276-.51787-4.58153,31.3765,34.05738,10.36124q-.34712,6.51086-.35756,13.113c0,4.72582.1506,9.41892.41812,14.07892l-34.64424,9.561,4.41911,31.39772,36.19366.41181a239.98894,239.98894,0,0,0,7.59017,25.77825L65.30358,457.75093,78.36885,486.6515l35.45409-9.90911a242.54068,242.54068,0,0,0,14.343,22.32493l-24.82728,27.56555,20.66079,24.08131,31.72046-19.7375a244.96259,244.96259,0,0,0,19.764,17.29556l-16.2841,33.82168,26.59968,17.32844,25.12038-28.07379a241.615,241.615,0,0,0,23.65371,11.0319l1.96754,15.21014,30.399,9.17788,8.17719-12.08466a243.44546,243.44546,0,0,0,29.00882,4.26948l9.04631,4.97528,31.75641.13579,1.60885-5.11747a242.9953,242.9953,0,0,0,25.737-3.61258l19.34067,1.84981,27.0327,23.79274-5.662-37.39078a241.43418,241.43418,0,0,0,23.80237-10.70933l24.73707,28.41985,26.83125-16.96448-15.83327-34.069a243.45584,243.45584,0,0,0,20.00607-17.0027l31.452,20.17376,20.98871-23.79905-24.4634-27.91469a242.044,242.044,0,0,0,14.63283-22.12324l35.34462,10.40043,13.456-28.71806-30.80243-19.61442a240.60206,240.60206,0,0,0,7.92457-25.66052l36.22653.08064,4.84889-31.33408-34.53267-10.03647c.40647-5.7372.626-11.53068.626-17.37305,0-3.28458-.08485-6.54908-.21327-9.80078l34.23454-9.907-4.15175-31.43707-35.2873.04243a241.27787,241.27787,0,0,0-7.31115-26.58478l29.47051-18.71138-12.81913-29.00979-33.272,9.74669A242.55057,242.55057,0,0,0,524.1503,217.9988l22.68581-25.82934-20.454-24.2532L497.57492,186.342a244.063,244.063,0,0,0-20.99308-18.76855l14.323-30.73021L464.459,119.29293l-22.19239,25.43454A241.56819,241.56819,0,0,0,416.62,132.53763Z" transform="translate(-11.16129 -52.41935)"/><path class="b" d="M325.2719,229.5872a128.54515,128.54515,0,1,1-128.54478,128.544A128.5429,128.5429,0,0,1,325.2719,229.5872Z" transform="translate(-11.16129 -52.41935)"/><path class="c" d="M325.2719,229.5872a128.54515,128.54515,0,1,1-128.54478,128.544A128.5429,128.5429,0,0,1,325.2719,229.5872Z" transform="translate(-11.16129 -52.41935)"/><path class="d" d="M421.6891,99.40248l-30.31516-9.43609L377.315,120.38844a244.14549,244.14549,0,0,0-31.36809-4.70736l-4.49117-33.20025-31.75933.13522L304.8022,115.673a243.6735,243.6735,0,0,0-28.215,4.01184l-13.635-30.59645L232.508,98.11265l4.6,33.18438a242.23692,242.23692,0,0,0-25.8146,11.847l-21.83694-25.72618L162.77192,134.6101l13.89471,30.90349A244.27449,244.27449,0,0,0,155.423,184.00927l-28.54665-18.81356-20.78548,23.97613,22.32243,26.12131A243.68313,243.68313,0,0,0,113.36255,238.781L80.23194,228.58432,67.02206,257.41825,96.2239,276.52411a239.6459,239.6459,0,0,0-7.7066,26.485l-35.24324-.51756-4.58235,31.37667L82.74925,344.2303q-.34759,6.50989-.35755,13.11321c0,4.72582.15,9.41828.41812,14.07835L48.16509,380.9824l4.41911,31.398,36.19431.41286A240.00534,240.00534,0,0,0,96.368,438.5718L65.31637,457.75255,78.381,486.6532l35.45393-9.90936A242.14621,242.14621,0,0,0,128.17917,499.068l-24.8284,27.566,20.66143,24.08219,31.72014-19.73758a244.99527,244.99527,0,0,0,19.76575,17.29435l-16.28523,33.82338,26.59919,17.32666,25.12022-28.07331a241.94618,241.94618,0,0,0,23.65484,11.03231l1.96657,15.20924,30.40067,9.17861,8.17654-12.0836A243.53975,243.53975,0,0,0,304.14,598.95412l9.04695,4.97512,31.75641.13595,1.60853-5.11739a242.89646,242.89646,0,0,0,25.73622-3.61217l19.34067,1.849,27.03384,23.7937-5.66312-37.39013a241.265,241.265,0,0,0,23.80253-10.71086l24.73918,28.421,26.83141-16.9644-15.83408-34.06985a243.76318,243.76318,0,0,0,20.0064-17.00359l31.45164,20.17465L544.987,529.63681,520.52242,501.722a241.98852,241.98852,0,0,0,14.632-22.12381l35.3443,10.40124,13.45684-28.71822-30.80244-19.61491a240.33524,240.33524,0,0,0,7.92392-25.66052l36.22734.08121,4.84922-31.33408-34.53332-10.0372c.40711-5.73526.62573-11.52978.62573-17.37216,0-3.28571-.08308-6.55-.2123-9.80159l34.23405-9.906L598.117,306.19866l-35.28891.0421a241.36145,241.36145,0,0,0-7.309-26.58478l29.4684-18.712L572.1696,231.93562l-33.27247,9.74588A242.63114,242.63114,0,0,0,524.165,218.00058l22.68548-25.83015-20.454-24.25207L497.5903,186.34279a243.93066,243.93066,0,0,0-20.99357-18.76709l14.32288-30.7307L464.4741,119.29487l-22.19352,25.43551a240.99954,240.99954,0,0,0-25.64619-12.18967Z" transform="translate(-11.16129 -52.41935)"/><path class="e" d="M325.21376,164.27153c107.84464,0,195.27093,87.42644,195.27093,195.26882,0,107.847-87.42629,195.27327-195.27093,195.27327-107.845,0-195.27335-87.42628-195.27335-195.27327C129.94041,251.698,217.36879,164.27153,325.21376,164.27153Z" transform="translate(-11.16129 -52.41935)"/><path class="a" d="M468.00255,513.39352h0l-2.48444,2.14478a3.53062,3.53062,0,0,0-1.53144,2.686,6.08939,6.08939,0,0,0,1.78082,3.32183l6.00157,6.94922a4.96607,4.96607,0,0,0,2.90046,1.98778,4.2595,4.2595,0,0,0,3.04361-1.35955l2.22032-1.91661Zm.68872-4.12835,15.42357,17.858-1.21518,1.0496-3.14029,2.71374q-3.082,2.66322-5.52919,2.61173-2.44678-.0589-4.86168-2.85585l-6.01112-6.96088q-2.56776-2.97378-2.6595-5.2045-.094-2.22867,2.287-4.28333l4.49441-3.88107Zm23.80221,4.91893L485.141,503.53428l-3.61574,3.78764,10.98956,6.8442Zm-9.81875-19.66852,13.33587,20.20453-1.47412,1.543-1.48367,1.55266-20.79989-12.38927,1.17907-1.23639,1.19186-1.24489,4.61765,2.90046,4.35644-4.56138-3.09252-4.49975,1.08563-1.13453Zm17.39629-4.92435-6.36544-4.9816-1.89758,2.42712a3.84059,3.84059,0,0,0-1.0411,2.87609,4.45219,4.45219,0,0,0,1.89759,2.62346l.09327.0753a4.0349,4.0349,0,0,0,2.95147,1.12814,4.62141,4.62141,0,0,0,2.67116-1.98559Zm8.01153,6.26892-5.90489-4.624-1.6916,2.16081a3.64331,3.64331,0,0,0-.99235,2.64679,3.85045,3.85045,0,0,0,1.66941,2.35918l.0902.07223a3.28838,3.28838,0,0,0,5.28613-.641Zm-14.497-15.43191L512.17066,494.973l-.98912,1.26076-2.53966,3.24539c-1.46132,1.87207-2.92054,2.95455-4.383,3.26125a5.52538,5.52538,0,0,1-4.57311-1.40189l-.09231-.07538a5.46068,5.46068,0,0,1-2.46744-3.88633,5.59616,5.59616,0,0,1,.7556-2.80071,6.42115,6.42115,0,0,1-2.85268,1.82009q-2.01223.50136-4.68971-1.59192l-.09344-.07538q-2.62509-2.052-2.7497-4.2026-.1353-2.14754,2.20527-5.13447l2.89722-3.70068ZM502.9535,466.066h0l.82459-1.28206.82345-1.28093,19.849,12.76391-1.369,2.1268-1.37436,2.13636L501.248,474.66125l17.14383,11.02769-.80337,1.24911-.80872,1.2576L496.934,475.42754l1.35946-2.1141,1.37226-2.13312,20.34144,5.854Zm25.94707-4.46478-10.09388-8.09541-2.38242,4.66647,12.491,3.40562Zm-15.04252-16.03051,18.56482,15.5349-.96887,1.90074-.97745,1.91345-23.47429-5.90812.77358-1.5197.78539-1.53671,5.25536,1.45606L516.68,451.794l-4.25037-3.42579.71317-1.39663Zm6.88655-17.2086,21.93652,8.694-.589,1.4921-.59642,1.50172-9.42524-3.7367-2.52363,6.36867,9.42508,3.73671-.59221,1.489-.59318,1.50383-21.93976-8.694.5901-1.48578.59544-1.507,10.03008,3.97346,2.52363-6.36875L519.556,431.356l.5901-1.48578Zm7.17528-14.69226h0l-.89989,3.15835a3.53355,3.53355,0,0,0,.19,3.08725,6.12923,6.12923,0,0,0,3.309,1.802l8.8319,2.52056a4.97968,4.97968,0,0,0,3.51712.07214,4.27343,4.27343,0,0,0,1.7988-2.80386l.80661-2.82192Zm-1.68528-3.83014,22.69212,6.48332-.44257,1.54311-1.13972,3.99256q-1.11906,3.916-3.19227,5.20977-2.079,1.29579-5.63121.28015l-8.84146-2.52687q-3.78229-1.07777-5.08143-2.8909-1.29882-1.81476-.43286-4.84047l1.63006-5.70652Zm14.18183-20.54087a28.341,28.341,0,0,1-5.28629-1.28732q-3.05478-1.01571-7.67081-3.00767l.2706-2.16073a73.26744,73.26744,0,0,0,7.04266,2.41328,41.21307,41.21307,0,0,0,5.99832,1.22157,44.37754,44.37754,0,0,0,6.61806.35764,50.95523,50.95523,0,0,0,6.91634-.6654l-.27059,2.15757q-4.9859.80232-8.19728,1.023A28.18491,28.18491,0,0,1,540.41643,389.29886Zm7.96586-12.68545.70054.05093a4.81236,4.81236,0,0,0,2.93641-.43933,2.65541,2.65541,0,0,0,1.02312-2.15329,2.8413,2.8413,0,0,0-3.05333-3.55954,3.16757,3.16757,0,0,0-2.236.51787,12.20559,12.20559,0,0,0-2.24672,2.89941,16.90322,16.90322,0,0,1-3.69751,4.58469,5.87558,5.87558,0,0,1-3.93525.85754,6.78194,6.78194,0,0,1-4.91787-2.09709,7.08633,7.08633,0,0,1-1.29372-5.27349c.189-2.45473.88725-4.139,2.10875-5.06006,1.13129-.85438,2.86645-1.19089,5.22572-1.01032l.62832.06574.69827.052-.24728,3.27826-.70038-.05092a7.01018,7.01018,0,0,0-3.81751.38209,2.98235,2.98235,0,0,0-1.231,2.55124,3.79276,3.79276,0,0,0,.674,2.87609,4.08309,4.08309,0,0,0,2.83456,1.08247,3.38319,3.38319,0,0,0,2.45691-.607,14.52958,14.52958,0,0,0,2.53011-3.30377,14.85047,14.85047,0,0,1,3.48408-4.139,5.38884,5.38884,0,0,1,3.65509-.94774,6.17153,6.17153,0,0,1,4.5634,2.009,6.99274,6.99274,0,0,1,1.17907,5.08775c-.17392,2.31044-.77568,3.89273-1.802,4.72906q-1.42465,1.16364-4.53053.94134l-.53488-.06259-.69827-.05206ZM532.095,349.77909h0l23.591-.63771.28663,10.57662-1.32449.03611-1.34683.03595-.19951-7.36087-7.46288.20162.18574,6.91634-1.32335.03611-1.34473.03919-.18995-6.91942-8.11339.22283.20485,7.56571-1.32351.03611-1.34781.03612Zm-1.52189-16.96116h0l-.19-1.51347-.18882-1.51331L553.608,326.8609l.31529,2.51.3161,2.51731-19.46374,8.61864,20.22469-2.53222.18687,1.47088.18364,1.48254L531.957,343.86141l-.313-2.49708-.31626-2.51521,19.365-8.55175Zm-1.93466-12.17187,23.22166-4.19612.28549,1.579.2855,1.58877L529.21036,323.814l-.28647-1.57387Zm-5.22572-21.3474h0l-.40015-1.42213-.40857-1.44432,22.707-6.41968.7122,2.52363.71317,2.52169-17.13217,9.28921,19.42439-1.18214.7101,2.52039.71317,2.52169-22.707,6.41953-.40339-1.42311-.40533-1.44642,19.71313-5.57179-.00324-.00631-21.02806.9211-.44241-1.559-.43837-1.56756,18.45552-10.2699.00324.00647ZM514.412,274.74814l21.9694-8.61328,3.7644,9.60029-1.23429.48079-1.25453.49343-2.5863-6.59992-6.94922,2.72216,2.47279,6.31459-1.23429.48387-1.25437.49132-2.47278-6.31248-10.045,3.93848-.58362-1.489ZM510.808,262.3175a3.13156,3.13156,0,0,0,2.184,1.88593,5.96964,5.96964,0,0,0,3.53834-.87446l8.80227-4.47433a5.617,5.617,0,0,0,2.65949-2.1894,3.38379,3.38379,0,0,0-.42136-2.86759,3.0509,3.0509,0,0,0-2.23813-1.86147,6.5756,6.5756,0,0,0-3.70076.95932l-7.73462,3.932a8.03946,8.03946,0,0,0-3.33024,2.53011A3.0691,3.0691,0,0,0,510.808,262.3175Zm-2.37934,1.20984q-1.74164-3.4211-.86394-5.47834.87083-2.05815,4.91059-4.10916l7.74935-3.93832q3.54207-1.80066,5.82635-1.194,2.28453.59537,3.90237,3.77816,1.64277,3.23454.77892,5.40612-.866,2.16648-4.53053,4.03063l-8.82024,4.48291q-3.12814,1.59346-5.232.89357C510.74528,266.94147,509.50258,265.64143,508.42861,263.52734Zm-15.13807-24.97285h0l19.23557-13.66914.92968,1.30538.935,1.317L497.334,239.63169l3.96812,5.58344-1.08029.76726-1.09842.77892Zm-5.82424-11.53918a3.14,3.14,0,0,0,2.50889,1.42214,6.00133,6.00133,0,0,0,3.29737-1.55476l7.75259-6.1193a5.566,5.566,0,0,0,2.1745-2.67131,3.37928,3.37928,0,0,0-.97422-2.72849,3.047,3.047,0,0,0-2.55974-1.38068,6.5312,6.5312,0,0,0-3.44182,1.66618l-6.808,5.37648a8.02519,8.02519,0,0,0-2.76783,3.13705A3.05872,3.05872,0,0,0,487.4663,227.01531Zm-2.09709,1.65662q-2.3766-3.01349-1.92511-5.20127.45521-2.192,4.0073-4.99641l6.82291-5.38491q3.11867-2.46427,5.48158-2.31991c1.56642.0902,3.09462,1.074,4.56663,2.93965q2.24616,2.85123,1.8286,5.14394-.42363,2.302-3.65185,4.847l-7.76425,6.12771c-1.836,1.4529-3.48732,2.0843-4.95512,1.90714C488.3142,231.56073,486.84122,230.53454,485.36921,228.67193Zm-11.00964-16.22888a3.12959,3.12959,0,0,0,2.632,1.17583,5.97151,5.97151,0,0,0,3.137-1.85937l7.13933-6.81967a5.56165,5.56165,0,0,0,1.91653-2.86435,3.37822,3.37822,0,0,0-1.22781-2.62241,3.05406,3.05406,0,0,0-2.68087-1.13777,6.54239,6.54239,0,0,0-3.2666,1.98567l-6.27524,5.992a8.03285,8.03285,0,0,0-2.45788,3.38433A3.063,3.063,0,0,0,474.35957,212.44305Zm-1.93143,1.84026q-2.64913-2.77011-2.4038-4.99334.23879-2.22551,3.517-5.352l6.28382-6.00464q2.875-2.7429,5.23738-2.82516,2.36081-.08114,4.82557,2.49723,2.509,2.62655,2.304,4.95189-.20211,2.329-3.17948,5.16839L481.8618,214.557q-2.54079,2.423-4.75561,2.36137C475.62883,216.88548,474.06776,216.00146,472.42814,214.28331Zm-19.08805-17.75514,15.49563-17.79433,1.21291,1.05275,1.21518,1.05907-6.65514,7.64766L469.775,192.991l6.65725-7.64442,1.20886,1.05276,1.21825,1.05923-15.49563,17.79757-1.20659-1.05065-1.2236-1.06458,7.084-8.13784-5.16532-4.49765-7.08492,8.13784-1.20255-1.04952Zm-.43626-9.67463-.40646.57423q-2.13,3.19494-4.3077,3.73671-2.17449.54119-4.92435-1.41679a6.77582,6.77582,0,0,1-3.10207-4.14852,6.57734,6.57734,0,0,1,1.51978-4.89456l6.08528-8.5464q2.20632-3.10434,4.468-3.58287c1.50067-.31626,3.21559.21,5.13115,1.57274q2.72224,1.93572,3.00021,4.02544a5.6355,5.6355,0,0,1-1.33922,4.07321l-.45424.64419-.40549.56775-2.62338-1.86471.40533-.572a4.887,4.887,0,0,0,1.2704-2.7042,2.667,2.667,0,0,0-1.38392-1.9792,3.34472,3.34472,0,0,0-2.70193-.77373,4.6147,4.6147,0,0,0-2.43035,2.01644l-6.07363,8.53362a6.02716,6.02716,0,0,0-1.41161,3.17429,2.94948,2.94948,0,0,0,1.51023,2.22341,2.65273,2.65273,0,0,0,2.55975.50524,6.39273,6.39273,0,0,0,2.58743-2.46436l.40323-.56452ZM438.843,166.67031l.35141-.61018a4.80609,4.80609,0,0,0,.87025-2.83682,2.66262,2.66262,0,0,0-1.50181-1.85613,2.83967,2.83967,0,0,0-4.52728,1.2215,3.15862,3.15862,0,0,0-.49991,2.23506,12.19025,12.19025,0,0,0,1.64918,3.28247,17.057,17.057,0,0,1,2.53853,5.31478,5.92378,5.92378,0,0,1-.92645,3.92035,6.78308,6.78308,0,0,1-4.01588,3.52877,7.088,7.088,0,0,1-5.31592-1.11331q-3.195-1.83711-3.65185-4.08471-.42509-2.08074,1.34149-5.14718l.33116-.53926.35237-.61018,2.84832,1.64173-.34914.60823a7.06875,7.06875,0,0,0-1.30537,3.6104,2.98044,2.98044,0,0,0,1.7724,2.2106,3.79316,3.79316,0,0,0,2.88135.63464,4.10725,4.10725,0,0,0,2.20527-2.09061,3.39391,3.39391,0,0,0,.51156-2.47927,14.48035,14.48035,0,0,0-1.889-3.709,14.95628,14.95628,0,0,1-2.22972-4.92759,5.42182,5.42182,0,0,1,.72483-3.70594,6.19577,6.19577,0,0,1,3.78124-3.2496,7.02249,7.02249,0,0,1,5.10265,1.1313c2.00689,1.15574,3.17106,2.38258,3.48619,3.66772q.42995,1.79094-1.10684,4.49457l-.28874.45423-.34914.60694Zm-38.89461-.27918h0l-1.41776-.56241-1.41679-.5603,8.69393-21.93977,2.35279.93292,2.36137.936L408.71144,166.406l7.50839-18.95008,1.38068.54767,1.39039.55075L410.297,170.4909l-2.34129-.92645-2.3549-.93194,1.81694-21.0917Zm-9.2808-25.04492-5.975,11.47975,5.04224,1.42634.90523-12.91467ZM377.87613,159.2275l11.61447-21.23809,2.05467.58055,2.06729.58362-1.215,24.1779-1.64609-.46589-1.65776-.46687.40339-5.43915-6.06731-1.717-2.53011,4.84047-1.51023-.42768Zm-8.26108-1.958,5.32451-22.98928,1.56107.36079,1.57387.364-5.32223,22.98928-1.55476-.3608Zm-15.27053-5.60773h0l3.23146.58362a3.5399,3.5399,0,0,0,3.05333-.49877,6.093,6.093,0,0,0,1.46132-3.47145l1.63444-9.03772a4.99077,4.99077,0,0,0-.27708-3.50757,4.28122,4.28122,0,0,0-2.97252-1.51023l-2.88459-.52305Zm-3.64343,2.05774,4.19418-23.22377,1.57921.2855,4.08584.73762q4.007.72581,5.5049,2.65837,1.49314,1.94057.83625,5.57809l-1.6333,9.04842q-.70055,3.86365-2.374,5.34037c-1.11543.98377-2.71051,1.28724-4.77052.91478l-5.84221-1.05275Zm-17.08326-1.18215h0l-1.51979-.11465-1.52188-.11675,1.79248-23.52838,2.52169.193,2.53222.19222,4.56663,20.79034,1.54618-20.32444,1.48059.11141,1.49209.11449-1.79248,23.52853-2.50987-.19-2.52687-.19206-4.52421-20.68Zm-12.332-.00858-.64-23.58893,1.60253-.04454,1.6163-.04566.64,23.59217-1.59719.0413ZM310.80473,142.833a28.85947,28.85947,0,0,1,.20161-5.46652q.37578-3.18062,1.39348-8.0891l2.16915-.16226a70.0914,70.0914,0,0,0-.94232,7.33965,43.3781,43.3781,0,0,0,.01263,6.16188,46.60566,46.60566,0,0,0,.95948,6.58519,50.22458,50.22458,0,0,0,2.00365,6.61806l-2.16931.1655q-1.74626-4.69294-2.60217-7.79826A28.71736,28.71736,0,0,1,310.80473,142.833Zm-21.16084,2.632h0l-7.761-12.50286,1.79573-.32469,1.79993-.32161,5.3509,9.66508-.01166-.03822,1.6035-10.88122,1.627-.29505,1.64609-.29829-2.88248,14.4249,1.76285,9.75948-1.5729.28226-1.594.2897Zm-14.57761,13.41133q-3.8316.88345-5.6683-.44889-1.84025-1.33087-2.85787-5.74246l-1.9549-8.47111q-.89318-3.87168.28857-5.957,1.191-2.08048,4.75885-2.90888,3.34944-.7722,5.21082.32792,1.84974,1.09672,2.52688,4.2324l.15918.68661-3.137.7216-.15919-.68241a3.73534,3.73534,0,0,0-1.33306-2.45254,3.37783,3.37783,0,0,0-2.66582-.22817,3.30677,3.30677,0,0,0-2.494,1.75637,6.33324,6.33324,0,0,0-.00534,3.83549l1.95167,8.45411a7.56425,7.56425,0,0,0,1.7065,3.829,3.30709,3.30709,0,0,0,3.0713.44581,9.66448,9.66448,0,0,0,3.08313-1.27882l-1.55476-6.73805-3.53526.81827-.6016-2.60234,6.67539-1.54407,2.62986,11.40541A15.888,15.888,0,0,1,275.06628,158.87626Zm-19.54536,3.07989a3.14061,3.14061,0,0,0,2.18081-1.88916,5.9921,5.9921,0,0,0-.35756-3.6274l-3.16474-9.353a5.58748,5.58748,0,0,0-1.78714-2.94823,3.38736,3.38736,0,0,0-2.89738.00324,3.04766,3.04766,0,0,0-2.1596,1.94956,6.52564,6.52564,0,0,0,.41488,3.79938l2.7795,8.22172a8.06314,8.06314,0,0,0,2.0281,3.65817A3.06624,3.06624,0,0,0,255.52092,161.95615Zm.85746,2.53011q-3.63751,1.22717-5.54733.06672-1.90875-1.16037-3.35988-5.44855l-2.789-8.23646q-1.26894-3.76334-.34283-5.93889c.61019-1.44966,2.05143-2.55667,4.29815-3.31761q3.44319-1.16037,5.46344.00534,2.02172,1.17008,3.3398,5.0633l3.17009,9.37115q1.12368,3.32539.12938,5.30637C260.08756,162.682,258.6251,163.72532,256.37838,164.48626Zm-20.11651,8.00829h0l-9.72013-21.50027,1.45921-.66232,1.47412-.66427,8.61863,19.06684,6.24237-2.82193.54443,1.20984.55609,1.2236ZM223.792,176.20373a3.1266,3.1266,0,0,0,1.769-2.2796,6.01023,6.01023,0,0,0-1.06231-3.48732l-4.93909-8.55288a5.55964,5.55964,0,0,0-2.32849-2.5353,3.37971,3.37971,0,0,0-2.8399.57083,3.04584,3.04584,0,0,0-1.73629,2.33482,6.5375,6.5375,0,0,0,1.1525,3.64343l4.34074,7.51486a8.025,8.025,0,0,0,2.70516,3.189A3.05431,3.05431,0,0,0,223.792,176.20373Zm1.33922,2.31036q-3.32709,1.92309-5.42409,1.15574c-1.40206-.50524-2.86127-2.07263-4.365-4.68452l-4.35013-7.52653q-1.98673-3.44319-1.50488-5.75736c.31626-1.541,1.51006-2.90677,3.568-4.09442q3.14563-1.81962,5.35511-1.06863,2.21118.74961,4.26851,4.31078l4.94557,8.56778q1.75572,3.0373,1.17048,5.17795C228.41276,176.02009,227.18592,177.32968,225.13126,178.51409Zm-20.19278,12.46043h0l-1.24174.88515-1.24595.88078-13.67027-19.23136,2.06422-1.46877,2.06956-1.47088,16.80522,13.06527-11.80767-16.61526,1.2087-.8607,1.21842-.866,13.67335,19.23557-2.05467,1.45938-2.06405,1.46764-16.70239-13.00795Zm-17.48131,13.93553-15.381-17.89733,1.21826-1.04643,1.22376-1.05276,6.60948,7.689,5.19284-4.46478-6.6064-7.689,1.21518-1.04417,1.22781-1.05292,15.38114,17.89425-1.2121,1.0411-1.231,1.05809-7.03294-8.18253-5.195,4.46478,7.03294,8.18253-1.20983,1.0411Zm-10.09906-1.44756.50832.484q2.85754,2.56436,3.08086,4.799.22614,2.22867-2.10875,4.67174a6.7736,6.7736,0,0,1-4.55174,2.47278,6.57505,6.57505,0,0,1-4.624-2.2085l-7.58709-7.24638q-2.75723-2.63139-2.90257-4.93391-.14963-2.30177,2.29239-4.85536c1.53662-1.61,3.01074-2.41012,4.41279-2.38891a5.63213,5.63213,0,0,1,3.83857,1.90714l.572.54443.50525.485-2.2234,2.3285-.50833-.485a4.8924,4.8924,0,0,0-2.49075-1.6482,2.68163,2.68163,0,0,0-2.15976,1.08563,3.34841,3.34841,0,0,0-1.15251,2.563,4.60257,4.60257,0,0,0,1.64917,2.69561l7.5743,7.23584a5.98339,5.98339,0,0,0,2.93657,1.84982,2.937,2.937,0,0,0,2.41546-1.17389,2.64932,2.64932,0,0,0,.86912-2.46,6.36774,6.36774,0,0,0-2.06616-2.91212l-.502-.48176Zm-14.06087,26.69635h0l-17.79433-15.49676,6.94922-7.98076.99867.86928,1.01778.885-4.83837,5.55364,5.63219,4.90314,4.54218-5.21617.99867.86912,1.0168.884-4.54542,5.2173,6.12237,5.33082,4.97212-5.70765.99964.86928,1.01357.88515Zm-8.04116,11.07L138.229,229.06674l-3.16474,4.43093-1.08255-.77585-1.09195-.77908,8.20359-11.48282,1.07607.77034,1.09535.78443L140.1,226.44643l17.02708,12.16231-.92969,1.3ZM140.82276,264.733l-20.44864-11.77689,5.14507-8.93166,1.14927.65795,1.16644.67382-3.5372,6.14374,6.46729,3.72716,3.38449-5.87833,1.14927.66232,1.16741.67058-3.38433,5.87849,9.34978,5.38167-.80013,1.38716ZM133.38,275.32561a3.1245,3.1245,0,0,0,.10509-2.88135,6.01648,6.01648,0,0,0-2.90046-2.21174l-9.00388-4.05831a5.57645,5.57645,0,0,0-3.37154-.69828,3.37289,3.37289,0,0,0-1.97077,2.12462,3.0517,3.0517,0,0,0-.04891,2.90888,6.54151,6.54151,0,0,0,3.066,2.28283l7.91194,3.56489a8.05314,8.05314,0,0,0,4.05815,1.0113A3.07032,3.07032,0,0,0,133.38,275.32561Zm2.43667,1.09519q-1.57914,3.50221-3.73039,4.10608-2.149.60969-6.27848-1.25129l-7.9244-3.57121q-3.62319-1.63329-4.58478-3.79289c-.64305-1.43493-.47221-3.24329.503-5.40936q1.49339-3.31275,3.72408-3.99467,2.23352-.686,5.98342,1.00725l9.01878,4.06463q3.1998,1.439,3.97443,3.517Q137.28224,273.17217,135.81663,276.4208Zm-10.41209,28.62146h0l-22.71334-6.39944,2.87066-10.18619,1.27251.35869,1.29582.364-1.9941,7.08719,7.18371,2.0281,1.87734-6.66048,1.27574.35755,1.2968.36728-1.87734,6.66048,7.812,2.199,2.05466-7.28669,1.27558.36193,1.29372.364ZM122.189,318.33263l-20.38825-4.72275-1.22683,5.30637-1.2968-.3004-1.30861-.30444,3.18288-13.7446,1.29047.29716,1.31494.3046-1.23008,5.30637,20.38711,4.72047-.361,1.558Zm-7.76441,9.6777a6.19662,6.19662,0,0,1,4.4638,2.21482,8.60963,8.60963,0,0,1-1.23008,9.82215,6.18349,6.18349,0,0,1-4.8701,1.04644l-17.46965-2.18729.19854-1.59087.20161-1.60367,16.54838,2.0728a5.81145,5.81145,0,0,0,3.51388-.3757,3.629,3.629,0,0,0,.66216-5.109,5.89179,5.89179,0,0,0-3.33655-1.20886l-16.54839-2.07264.19838-1.592.20161-1.6035Zm3.75694,27.56547-20.91664-.56565-.14753,5.44223-1.3329-.03611-1.33825-.03611.382-14.10637,1.32351.03611,1.34781.03595-.14753,5.44547,20.91665.56565-.04146,1.60043Zm.15919,13.79658-23.58781.641-.04566-1.60359-.04453-1.61532,23.591-.641.04242,1.59719Zm1.10166,13.55878-20.767,2.59909.67706,5.403-1.32011.1655-1.32983.16558-1.75427-14.00135,1.31493-.16558,1.33825-.16874.67383,5.40612,20.767-2.599.1953,1.58553Zm-14.5755,16.04864-.68888.12623a4.82154,4.82154,0,0,0-2.73173,1.16741,2.65837,2.65837,0,0,0-.44775,2.34121,2.83946,2.83946,0,0,0,3.85346,2.67439,3.16224,3.16224,0,0,0,2.03021-1.0623,12.10447,12.10447,0,0,0,1.44432-3.37486,17.03577,17.03577,0,0,1,2.424-5.37009,5.893,5.893,0,0,1,3.59242-1.82009,6.80442,6.80442,0,0,1,5.28823.79066,7.114,7.114,0,0,1,2.579,4.77788q.6573,3.63266-.76742,5.42944-1.31314,1.66512-4.79788,2.29554l-.62621.09344-.692.12623-.58362-3.23689.68872-.12307a7.04724,7.04724,0,0,0,3.60084-1.33615,2.98059,2.98059,0,0,0,.54767-2.77949,3.797,3.797,0,0,0-1.37436-2.61181,4.10311,4.10311,0,0,0-3.02046-.33318,3.40748,3.40748,0,0,0-2.22324,1.20554,14.61515,14.61515,0,0,0-1.61856,3.83654,14.88412,14.88412,0,0,1-2.32526,4.88184,5.40645,5.40645,0,0,1-3.30045,1.83816,6.18173,6.18173,0,0,1-4.92112-.79382,7.00468,7.00468,0,0,1-2.425-4.6272c-.4118-2.27959-.2293-3.96172.55286-5.02937q1.08894-1.48525,4.14851-2.05458l.53277-.07223.68872-.12412Zm22.67091,22.67091h0l.41181,1.46878.41488,1.46456-22.707,6.4196-.68872-2.43351-.68872-2.443,17.94817-11.44695-19.61451,5.54522-.40646-1.42958-.40647-1.43485,22.71027-6.4196.68337,2.42177.68889,2.43991-17.85814,11.36518Zm4.10916,11.62193-21.94916,8.66956-.58912-1.49217-.59318-1.50165,21.94932-8.66956.58686,1.48578Zm10.07154,22.36315h0l.68872,1.35736.692,1.35954-21.03648,10.69443-1.1462-2.25311-1.14943-2.26575,15.39377-14.70076-18.17326,9.23521-.67058-1.32028-.6803-1.3329L136.67425,445.715l1.13971,2.24356,1.14944,2.25943-15.31847,14.60846Zm-9.57277,24.81893,12.09122-4.61441-2.82516-4.41384-9.25,9.05586Zm21.43776-4.87334-22.79075,8.16439-1.14943-1.79888-1.15461-1.80843,16.9665-17.2669.91689,1.43808.92969,1.45282-3.9129,3.79622,3.39923,5.31592,5.10475-1.9379.846,1.32124Zm4.94233,6.90355-19.21112,13.70638-.93179-1.30538-.93924-1.31808,19.21112-13.7021.92969,1.30214Zm7.99679,14.24231h0L164.384,494.2364a3.54023,3.54023,0,0,0-2.68395-1.53775,6.08535,6.08535,0,0,0-3.32393,1.77232l-6.9672,5.98666a4.99372,4.99372,0,0,0-1.99523,2.89941,4.27577,4.27577,0,0,0,1.35412,3.04475l1.91038,2.2234Zm4.12406.70046L152.7535,512.80981l-1.04741-1.21841-2.70419-3.14661q-2.65838-3.09159-2.59894-5.53567.06365-2.44509,2.86646-4.85528l6.97367-5.99622q2.97827-2.55817,5.21082-2.64679c1.48578-.06048,2.91212.71,4.28,2.2987l3.86949,4.49984Zm11.9309,12.25025h0l1.1015,1.04959,1.10377,1.056-16.299,17.0631-1.8286-1.74787-1.83815-1.75322,9.64693-18.97663L160.38205,521.1121l-1.0709-1.02514-1.08255-1.03268,16.299-17.06634,1.82018,1.73945,1.83491,1.75111-9.60872,18.862Zm9.164,8.23978-15.45741,17.83044-1.2121-1.05284-1.2215-1.05591L189.308,515.809l1.20887,1.04635Z" transform="translate(-11.16129 -52.41935)"/><rect class="a" x="306.35494" y="178.0185" width="15.90517" height="67.28159"/><polygon class="f" points="210.546 379.978 261.306 329.901 269.139 344.209 222.128 392.922 210.546 379.978"/><polygon class="f" points="415.621 383.043 364.865 332.967 357.027 347.274 404.039 395.988 415.621 383.043"/><line class="g" x1="185.8063" y1="304.5164" x2="442.0831" y2="304.5164"/><path class="h" d="M414.00372,356.12347a158.31871,158.31871,0,0,1,37.87489,25.26369m-253.50038,0a256.06715,256.06715,0,0,1,46.70113-24.6799" transform="translate(-11.16129 -52.41935)"/><path class="i" d="M385.13481,365.21771c21.49428,7.37318,42.30275,18.55819,62.326,32.90156m-244.70167,0c20.81155-14.64749,41.3104-25.29382,61.43922-32.339" transform="translate(-11.16129 -52.41935)"/><path class="j" d="M377.89346,387.95446a215.87722,215.87722,0,0,1,59.84137,31.95421m-225.8562-1.2576c19.07315-15.1975,39.24083-25.94391,59.81449-32.4806" transform="translate(-11.16129 -52.41935)"/><path class="f" d="M325.26882,295.788a62.34765,62.34765,0,1,1-62.35092,62.34752A62.34779,62.34779,0,0,1,325.26882,295.788" transform="translate(-11.16129 -52.41935)"/><line class="k" x1="288.44061" y1="391.10117" x2="349.48178" y2="428.27188"/><line class="k" x1="285.10745" y1="396.60364" x2="342.86956" y2="431.57507"/><line class="l" x1="343.20266" y1="392.59504" x2="290.73867" y2="431.96915"/><line class="m" x1="340.4005" y1="386.94917" x2="282.5069" y2="430.37787"/><path class="k" d="M293.0768,439.40553l4.3736-6.90687,5.06638.22857-2.76492,8.29071q-.22931,6.90376-5.06541,9.20825l-5.75509,10.59273-3.9137-.22922,3.22158-14.96618Q288.35608,441.12916,293.0768,439.40553Z" transform="translate(-11.16129 -52.41935)"/><path class="b" d="M289.85181,438.945l4.37409-6.90671,5.066.22841-2.76184,8.29079q-.23465,6.90364-5.066,9.20866l-5.75736,10.59224-3.91435-.23141,3.22531-14.96706Q285.13012,440.67027,289.85181,438.945Z" transform="translate(-11.16129 -52.41935)"/><path class="k" d="M289.85181,438.945l4.37409-6.90671,5.066.22841-2.76184,8.29079q-.23465,6.90364-5.066,9.20866l-5.75736,10.59224-3.91435-.23141,3.22531-14.96706Q285.13012,440.67027,289.85181,438.945Z" transform="translate(-11.16129 -52.41935)"/><polygon class="b" points="306.939 379.965 302.408 401.378 322.449 401.378 319.026 379.965 306.939 379.965"/><polygon class="k" points="306.939 379.965 302.408 401.378 322.449 401.378 319.026 379.965 306.939 379.965"/><rect class="n" x="302.03785" y="419.20816" width="21.90965" height="5.40555"/><rect class="k" x="302.03785" y="419.20816" width="21.90965" height="5.40555"/><rect class="n" x="298.08463" y="413.7988" width="28.17225" height="5.40677"/><rect class="o" x="298.08479" y="413.7988" width="28.17225" height="5.40677"/><path class="f" d="M355.50205,432.18571c-4.87966,1.71735-7.33431,2.90581-5.89614,6.36544.88417,2.12964,3.38675,5.94108,5.0926,5.95063,3.55874.02065,5.5713-3.14976,6.60041-5.74027C362.95684,434.58919,362.19233,431.10818,355.50205,432.18571Z" transform="translate(-11.16129 -52.41935)"/><path class="k" d="M355.50205,432.18571c-4.87966,1.71735-7.33431,2.90581-5.89614,6.36544.88417,2.12964,3.38675,5.94108,5.0926,5.95063,3.55874.02065,5.5713-3.14976,6.60041-5.74027C362.95684,434.58919,362.19233,431.10818,355.50205,432.18571Z" transform="translate(-11.16129 -52.41935)"/><rect class="n" x="304.19955" y="401.46006" width="7.05302" height="11.92005"/><rect class="p" x="304.19971" y="401.45998" width="7.05286" height="11.92013"/><rect class="n" x="314.41489" y="401.46006" width="6.56996" height="11.92005"/><rect class="q" x="314.41505" y="401.45998" width="6.56996" height="11.92013"/><path class="b" d="M340.38228,421.77662c12.80957,6.7298,22.78184,18.72709,28.45839,36.48758-4.56032-5.48418-8.07711-10.55314-13.20341-12.42409-2.44541-.89324-3.91985-3.74245-4.56031-6.22446C349.368,433.0069,345.60168,427.50767,340.38228,421.77662Z" transform="translate(-11.16129 -52.41935)"/><path class="k" d="M340.38228,421.77662c12.80957,6.7298,22.78184,18.72709,28.45839,36.48758-4.56032-5.48418-8.07711-10.55314-13.20341-12.42409-2.44541-.89324-3.91985-3.74245-4.56031-6.22446C349.368,433.0069,345.60168,427.50767,340.38228,421.77662Z" transform="translate(-11.16129 -52.41935)"/><rect class="k" x="309.57992" y="369.06554" width="5.94391" height="4.6689"/><path class="k" d="M312.76272,432.26353h21.84956a15.12363,15.12363,0,0,0-4.94848-4.7774,15.7954,15.7954,0,0,0-11.20607-.18582A13.55448,13.55448,0,0,0,312.76272,432.26353Z" transform="translate(-11.16129 -52.41935)"/><path class="r" d="M306.18822,483.62473h34.99532a22.925,22.925,0,0,0-7.92959-4.77457c-6.19378-2.37967-12.15081-2.51488-17.94444-.1863A21.85369,21.85369,0,0,0,306.18822,483.62473Z" transform="translate(-11.16129 -52.41935)"/><path class="b" d="M317.444,344.30382l-.96887.4842c-13.44064,4.36534-28.0793-.70071-30.73556-13.58833l6.78955.24679c2.8067.10218,2.30729-.03611,3.03876,2.55408,2.25287,8.00213,14.86051,12.18368,21.55435,10.46277-9.20241,1.558-25.76926-3.06823-23.29372-24.74954l10.9983,2.91244c-.40921,12.042,5.25568,17.67677,12.61719,21.51549-12.70107-5.50862-15.1711-16.76246-10.18894-32.192l9.3825,9.383C315.52747,328.35412,317.25454,335.98315,317.444,344.30382Z" transform="translate(-11.16129 -52.41935)"/><path class="s" d="M317.444,344.30382l-.96887.4842c-13.44064,4.36534-28.0793-.70071-30.73556-13.58833l6.78955.24679c2.8067.10218,2.30729-.03611,3.03876,2.55408,2.25287,8.00213,14.86051,12.18368,21.55435,10.46277-9.20241,1.558-25.76926-3.06823-23.29372-24.74954l10.9983,2.91244c-.40921,12.042,5.25568,17.67677,12.61719,21.51549-12.70107-5.50862-15.1711-16.76246-10.18894-32.192l9.3825,9.383C315.52747,328.35412,317.25454,335.98315,317.444,344.30382Z" transform="translate(-11.16129 -52.41935)"/><path class="b" d="M333.51419,344.30382l.97194.4842c13.43757,4.36534,28.07914-.70071,30.73524-13.58833l-6.79214.24679c-2.8067.10218-2.30437-.03611-3.03536,2.55408-2.25643,8.00213-14.86115,12.18368-21.55484,10.46277,9.19918,1.558,25.76894-3.06823,23.29356-24.74954l-10.9983,2.91244c.40614,12.042-5.25568,17.67677-12.6201,21.51549,12.704-5.50862,15.17126-16.76246,10.1925-32.192l-9.38314,9.383C335.43347,328.35412,333.70673,335.98315,333.51419,344.30382Z" transform="translate(-11.16129 -52.41935)"/><path class="s" d="M333.51419,344.30382l.97194.4842c13.43757,4.36534,28.07914-.70071,30.73524-13.58833l-6.79214.24679c-2.8067.10218-2.30437-.03611-3.03536,2.55408-2.25643,8.00213-14.86115,12.18368-21.55484,10.46277,9.19918,1.558,25.76894-3.06823,23.29356-24.74954l-10.9983,2.91244c.40614,12.042-5.25568,17.67677-12.6201,21.51549,12.704-5.50862,15.17126-16.76246,10.1925-32.192l-9.38314,9.383C335.43347,328.35412,333.70673,335.98315,333.51419,344.30382Z" transform="translate(-11.16129 -52.41935)"/><path class="b" d="M317.71784,344.6617c-18.4288,1.99491-26.759,11.60347-26.39191,23.99443l12.26174-.036C313.7405,363.40936,317.57323,353.87351,317.71784,344.6617Z" transform="translate(-11.16129 -52.41935)"/><path class="s" d="M317.71784,344.6617c-18.4288,1.99491-26.759,11.60347-26.39191,23.99443l12.26174-.036C313.7405,363.40936,317.57323,353.87351,317.71784,344.6617Z" transform="translate(-11.16129 -52.41935)"/><path class="b" d="M331.3635,344.6617c18.429,1.99491,26.30754,11.60347,25.94334,23.99443l-12.26482-.036C334.88936,363.40936,331.50454,353.87351,331.3635,344.6617Z" transform="translate(-11.16129 -52.41935)"/><path class="s" d="M331.3635,344.6617c18.429,1.99491,26.30754,11.60347,25.94334,23.99443l-12.26482-.036C334.88936,363.40936,331.50454,353.87351,331.3635,344.6617Z" transform="translate(-11.16129 -52.41935)"/><path class="b" d="M324.78268,372.57858c-12.731-8.03809-9.39237-26.20827-5.11447-28.12108,1.0743-.4782,9.00664.00891,10.80625-.04842C336.7735,359.88058,329.95059,367.97316,324.78268,372.57858Z" transform="translate(-11.16129 -52.41935)"/><path class="t" d="M324.78284,372.57858c-12.731-8.03809-9.39236-26.20844-5.11463-28.12124,1.0743-.4782,9.0068.00891,10.80625-.04826C336.7735,359.88058,329.95059,367.97308,324.78284,372.57858Z" transform="translate(-11.16129 -52.41935)"/><path class="b" d="M325.80807,308.39971c-12.54707,6.84072-11.59407,34.96261-7.29479,36.16872l14.957.2923C338.99042,330.11049,335.65176,317.18983,325.80807,308.39971Z" transform="translate(-11.16129 -52.41935)"/><path class="t" d="M325.80807,308.39955c-12.54691,6.84072-11.59391,34.96261-7.29463,36.16888l14.95686.29213C338.99059,330.11033,335.65192,317.18983,325.80807,308.39955Z" transform="translate(-11.16129 -52.41935)"/><path class="b" d="M323.8815,411.1094c4.49166-5.43033,10.18376-6.21832,20.09546-4.07354l.274-25.93727c-5.40029-4.43449-12.30125-3.70934-20.23359.54419-8.56487-5.02653-15.28576-4.07305-20.23133-1.49476l-.27335,26.61449C312.08031,405.44483,319.66384,404.82485,323.8815,411.1094Z" transform="translate(-11.16129 -52.41935)"/><path class="u" d="M323.8815,411.1094c4.49166-5.43033,10.18376-6.21832,20.09546-4.07354l.274-25.93727c-5.40029-4.43449-12.30125-3.70934-20.23359.54419-8.56487-5.02653-15.28576-4.07305-20.23133-1.49476l-.27335,26.61449C312.08031,405.44483,319.66384,404.82485,323.8815,411.1094Z" transform="translate(-11.16129 -52.41935)"/><path class="v" d="M324.15841,415.8591c4.84614-7.316,10.83572-10.08384,23.33259-4.344l.319-28.65085c-6.33272-5.11391-14.16062-7.1059-23.87411-1.2215-10.05145-5.02662-19.29581-3.39639-23.60416-.1353l.35837,29.19295C305.73528,408.07072,319.43535,406.03752,324.15841,415.8591Z" transform="translate(-11.16129 -52.41935)"/><line class="u" x1="312.58516" y1="329.22343" x2="312.58516" y2="358.69004"/><path class="w" d="M305.41367,383.67971q8.28456-4.82387,16.56669,1.2215" transform="translate(-11.16129 -52.41935)"/><path class="w" d="M305.41367,387.75276q8.28456-4.82363,16.56669,1.2215" transform="translate(-11.16129 -52.41935)"/><path class="w" d="M305.41367,391.82573q8.28456-4.82375,16.56669,1.22158" transform="translate(-11.16129 -52.41935)"/><path class="w" d="M305.41367,395.89943q8.28456-4.81926,16.56669,1.22149" transform="translate(-11.16129 -52.41935)"/><path class="w" d="M305.41367,399.9724q8.28456-4.81926,16.56669,1.22465" transform="translate(-11.16129 -52.41935)"/><path class="w" d="M305.41367,404.04569q8.28456-4.81926,16.56669,1.22449" transform="translate(-11.16129 -52.41935)"/><path class="x" d="M325.78313,383.67971q8.28018-4.82387,16.56685,1.2215" transform="translate(-11.16129 -52.41935)"/><path class="x" d="M325.78313,387.75276q8.28018-4.82363,16.56685,1.2215" transform="translate(-11.16129 -52.41935)"/><path class="x" d="M325.78313,391.82573q8.28018-4.82375,16.56685,1.22158" transform="translate(-11.16129 -52.41935)"/><path class="x" d="M325.78313,395.89943q8.28018-4.81926,16.56685,1.22149" transform="translate(-11.16129 -52.41935)"/><path class="x" d="M325.78313,399.9724q8.28018-4.81926,16.56685,1.22465" transform="translate(-11.16129 -52.41935)"/><path class="x" d="M325.78313,404.04569q8.28018-4.81926,16.56685,1.22449" transform="translate(-11.16129 -52.41935)"/><path class="y" d="M244.17057,363.45778c.29828,0,.53844.32161.53844.71609,0,.3969-.24016.71867-.53844.71867-.29748,0-.53828-.32177-.53828-.71867C243.63229,363.77939,243.87309,363.45778,244.17057,363.45778Z" transform="translate(-11.16129 -52.41935)"/><path class="y" d="M232.324,366.68843c.29812,0,.53828.31934.53828.71609,0,.39739-.24016.71916-.53828.71916-.29781,0-.53861-.32177-.53861-.71916C231.78543,367.00777,232.02623,366.68843,232.324,366.68843Z" transform="translate(-11.16129 -52.41935)"/><path class="y" d="M222.63451,371.71262c.29456,0,.53844.32161.53844.719,0,.39675-.24388.7156-.53844.7156-.29813,0-.53893-.31885-.53893-.7156C222.09558,372.03423,222.33638,371.71262,222.63451,371.71262Z" transform="translate(-11.16129 -52.41935)"/><path class="y" d="M218.68421,377.09736c.29829,0,.53844.32185.53844.71925,0,.39674-.24015.71544-.53844.71544-.29732,0-.53844-.3187-.53844-.71544C218.14577,377.41921,218.38689,377.09736,218.68421,377.09736Z" transform="translate(-11.16129 -52.41935)"/><path class="y" d="M212.94175,379.25113c.29731,0,.53828.32177.53828.71916,0,.39432-.241.71609-.53828.71609-.29829,0-.53861-.32177-.53861-.71609C212.40314,379.5729,212.64346,379.25113,212.94175,379.25113Z" transform="translate(-11.16129 -52.41935)"/><path class="y" d="M206.12143,381.76335c.29813,0,.53909.3216.53909.719,0,.39674-.241.71617-.53909.71617-.29748,0-.53828-.31943-.53828-.71617C205.58315,382.085,205.824,381.76335,206.12143,381.76335Z" transform="translate(-11.16129 -52.41935)"/><path class="y" d="M205.76079,387.86725c.29732,0,.53845.31886.53845.7156,0,.39724-.24113.719-.53845.719-.29472,0-.53552-.32177-.53552-.719C205.22527,388.18611,205.46607,387.86725,205.76079,387.86725Z" transform="translate(-11.16129 -52.41935)"/><path class="y" d="M210.06865,387.50589c.29781,0,.53845.32242.53845.71924,0,.39716-.24064.71884-.53845.71884s-.53828-.32168-.53828-.71884C209.53037,387.82831,209.77069,387.50589,210.06865,387.50589Z" transform="translate(-11.16129 -52.41935)"/><path class="y" d="M229.45418,376.02064c.29732,0,.53828.32177.53828.71916,0,.39659-.241.71544-.53828.71544-.29764,0-.53844-.31885-.53844-.71544C228.91574,376.34241,229.15654,376.02064,229.45418,376.02064Z" transform="translate(-11.16129 -52.41935)"/><path class="y" d="M236.63189,370.99645c.29765,0,.53861.31886.53861.71617,0,.39715-.241.719-.53861.719-.298,0-.53844-.32185-.53844-.719C236.09345,371.31531,236.33393,370.99645,236.63189,370.99645Z" transform="translate(-11.16129 -52.41935)"/><path class="y" d="M242.73612,368.8426c.29441,0,.53828.31886.53828.71625,0,.39675-.24387.71836-.53828.71836-.29845,0-.5386-.32161-.5386-.71836C242.19752,369.16146,242.43767,368.8426,242.73612,368.8426Z" transform="translate(-11.16129 -52.41935)"/><path class="y" d="M249.19484,365.61155c.29764,0,.53844.31885.53844.71625,0,.39723-.2408.71884-.53844.71884-.29829,0-.53828-.32161-.53828-.71884C248.65656,365.9304,248.89655,365.61155,249.19484,365.61155Z" transform="translate(-11.16129 -52.41935)"/><path class="y" d="M255.29809,362.73878c.29829,0,.53861.32177.53861.719s-.24032.71609-.53861.71609c-.29731,0-.53844-.31886-.53844-.71609S255.00078,362.73878,255.29809,362.73878Z" transform="translate(-11.16129 -52.41935)"/><path class="y" d="M256.01434,397.5567c.29813,0,.53845.32241.53845.71916,0,.39707-.24032.71892-.53845.71892-.29456,0-.53828-.32185-.53828-.71892C255.47606,397.87911,255.71978,397.5567,256.01434,397.5567Z" transform="translate(-11.16129 -52.41935)"/><path class="y" d="M244.17057,400.78783c.29828,0,.53844.32177.53844.71917,0,.39674-.24016.71544-.53844.71544-.29748,0-.53828-.3187-.53828-.71544C243.63229,401.1096,243.87309,400.78783,244.17057,400.78783Z" transform="translate(-11.16129 -52.41935)"/><path class="y" d="M234.47764,405.81437c.29813,0,.53909.31942.53909.71617,0,.39723-.241.719-.53909.719-.29748,0-.53828-.32177-.53828-.719C233.93936,406.13379,234.18016,405.81437,234.47764,405.81437Z" transform="translate(-11.16129 -52.41935)"/><path class="y" d="M230.5309,411.19636c.29829,0,.53844.32242.53844.71916,0,.39724-.24015.719-.53844.719-.29748,0-.53844-.32177-.53844-.719C229.99246,411.51878,230.23342,411.19636,230.5309,411.19636Z" transform="translate(-11.16129 -52.41935)"/><path class="y" d="M224.78844,413.35069c.2944,0,.53536.32161.53536.719,0,.39674-.241.71859-.53536.71859-.29829,0-.5386-.32185-.5386-.71859C224.24984,413.6723,224.49015,413.35069,224.78844,413.35069Z" transform="translate(-11.16129 -52.41935)"/><path class="y" d="M217.96537,415.86566c.298,0,.53828.31886.53828.71569,0,.39715-.24032.71884-.53828.71884-.2978,0-.5386-.32169-.5386-.71884C217.42677,416.18452,217.66757,415.86566,217.96537,415.86566Z" transform="translate(-11.16129 -52.41935)"/><path class="y" d="M217.60749,421.96617c.29748,0,.53828.32161.53828.719s-.2408.71633-.53828.71633c-.29764,0-.53844-.31893-.53844-.71633S217.30985,421.96617,217.60749,421.96617Z" transform="translate(-11.16129 -52.41935)"/><path class="y" d="M221.91551,421.60845c.29748,0,.53828.32177.53828.716,0,.39682-.2408.71859-.53828.71859-.29813,0-.53861-.32177-.53861-.71859C221.3769,421.93022,221.61738,421.60845,221.91551,421.60845Z" transform="translate(-11.16129 -52.41935)"/><path class="y" d="M241.2978,410.12247c.29748,0,.5386.31869.5386.71609s-.24112.71908-.5386.71908-.53861-.32169-.53861-.71908S241.00032,410.12247,241.2978,410.12247Z" transform="translate(-11.16129 -52.41935)"/><path class="y" d="M248.47859,405.096c.29764,0,.5386.3216.5386.71835,0,.39731-.241.71617-.5386.71617-.298,0-.53844-.31886-.53844-.71617C247.94015,405.41762,248.18062,405.096,248.47859,405.096Z" transform="translate(-11.16129 -52.41935)"/><path class="y" d="M254.57974,402.94152c.29748,0,.53844.3225.53844.71924,0,.39716-.241.71609-.53844.71609-.29813,0-.53893-.31893-.53893-.71609C254.04081,403.264,254.28161,402.94152,254.57974,402.94152Z" transform="translate(-11.16129 -52.41935)"/><path class="y" d="M261.04153,399.711c.29748,0,.53828.32177.53828.719,0,.39675-.2408.71552-.53828.71552-.29829,0-.53844-.31877-.53844-.71552C260.50309,400.0328,260.74324,399.711,261.04153,399.711Z" transform="translate(-11.16129 -52.41935)"/><path class="y" d="M267.14187,396.84126c.29829,0,.53844.31861.53844.71544,0,.39739-.24015.71916-.53844.71916-.29456,0-.53828-.32177-.53828-.71916C266.60359,397.15987,266.84731,396.84126,267.14187,396.84126Z" transform="translate(-11.16129 -52.41935)"/><path class="y" d="M405.34039,363.45778c-.29813,0-.53812.32161-.53812.71609,0,.3969.24.71867.53812.71867.29748,0,.5386-.32177.5386-.71867C405.879,363.77939,405.63787,363.45778,405.34039,363.45778Z" transform="translate(-11.16129 -52.41935)"/><path class="y" d="M417.18741,366.68843c-.29846,0-.53861.31934-.53861.71609,0,.39739.24015.71916.53861.71916.29715,0,.53811-.32177.53811-.71916C417.72552,367.00777,417.48456,366.68843,417.18741,366.68843Z" transform="translate(-11.16129 -52.41935)"/><path class="y" d="M426.87725,371.71262c-.29828,0-.53892.32161-.53892.719,0,.39675.24064.7156.53892.7156.29748,0,.53828-.31885.53828-.7156C427.41553,372.03423,427.17473,371.71262,426.87725,371.71262Z" transform="translate(-11.16129 -52.41935)"/><path class="y" d="M430.82691,377.09736c-.29829,0-.53844.32185-.53844.71925,0,.39674.24015.71544.53844.71544.29748,0,.53844-.3187.53844-.71544C431.36535,377.41921,431.12439,377.09736,430.82691,377.09736Z" transform="translate(-11.16129 -52.41935)"/><path class="y" d="M436.56953,379.25113c-.29748,0-.5386.32177-.5386.71916,0,.39432.24112.71609.5386.71609.29813,0,.53844-.32177.53844-.71609C437.108,379.5729,436.86766,379.25113,436.56953,379.25113Z" transform="translate(-11.16129 -52.41935)"/><path class="y" d="M443.38969,381.76335c-.29813,0-.53844.3216-.53844.719,0,.39674.24031.71617.53844.71617.29748,0,.53828-.31943.53828-.71617C443.928,382.085,443.68717,381.76335,443.38969,381.76335Z" transform="translate(-11.16129 -52.41935)"/><path class="y" d="M443.74741,387.86725c-.29457,0-.53844.31886-.53844.7156,0,.39724.24387.719.53844.719.29748,0,.5386-.32177.5386-.719C444.286,388.18611,444.04489,387.86725,443.74741,387.86725Z" transform="translate(-11.16129 -52.41935)"/><path class="y" d="M439.44246,387.50589c-.2978,0-.5386.32242-.5386.71924,0,.39716.2408.71884.5386.71884.298,0,.53845-.32168.53845-.71884C439.98091,387.82831,439.74043,387.50589,439.44246,387.50589Z" transform="translate(-11.16129 -52.41935)"/><path class="y" d="M420.05694,376.02064c-.29748,0-.53812.32177-.53812.71916,0,.39659.24064.71544.53812.71544.29829,0,.5386-.31885.5386-.71544C420.59554,376.34241,420.35523,376.02064,420.05694,376.02064Z" transform="translate(-11.16129 -52.41935)"/><path class="y" d="M412.8789,370.99645c-.29716,0-.53812.31886-.53812.71617,0,.39715.241.719.53812.719.29829,0,.53876-.32185.53876-.719C413.41766,371.31531,413.17719,370.99645,412.8789,370.99645Z" transform="translate(-11.16129 -52.41935)"/><path class="y" d="M406.77515,368.8426c-.2978,0-.53844.31886-.53844.71625,0,.39675.24064.71836.53844.71836.298,0,.53893-.32161.53893-.71836C407.31408,369.16146,407.07312,368.8426,406.77515,368.8426Z" transform="translate(-11.16129 -52.41935)"/><path class="y" d="M400.31644,365.61155c-.2978,0-.5386.31885-.5386.71625,0,.39723.2408.71884.5386.71884.298,0,.53893-.32161.53893-.71884C400.85537,365.9304,400.61441,365.61155,400.31644,365.61155Z" transform="translate(-11.16129 -52.41935)"/><path class="y" d="M394.21286,362.73878c-.298,0-.53844.32177-.53844.719s.24048.71609.53844.71609c.29764,0,.5386-.31886.5386-.71609S394.5105,362.73878,394.21286,362.73878Z" transform="translate(-11.16129 -52.41935)"/><path class="y" d="M393.49693,397.5567c-.2978,0-.5386.32241-.5386.71916,0,.39707.2408.71892.5386.71892.29441,0,.53537-.32185.53537-.71892C394.0323,397.87911,393.79134,397.5567,393.49693,397.5567Z" transform="translate(-11.16129 -52.41935)"/><path class="y" d="M405.34039,400.78783c-.29813,0-.53812.32177-.53812.71917,0,.39674.24.71544.53812.71544.29748,0,.5386-.3187.5386-.71544C405.879,401.1096,405.63787,400.78783,405.34039,400.78783Z" transform="translate(-11.16129 -52.41935)"/><path class="y" d="M415.03348,405.81437c-.298,0-.53909.31942-.53909.71617,0,.39723.24112.719.53909.719.29764,0,.53844-.32177.53844-.719C415.57192,406.13379,415.33112,405.81437,415.03348,405.81437Z" transform="translate(-11.16129 -52.41935)"/><path class="y" d="M418.98021,411.19636c-.29812,0-.53844.32242-.53844.71916,0,.39724.24032.719.53844.719.29748,0,.53861-.32177.53861-.719C419.51882,411.51878,419.27769,411.19636,418.98021,411.19636Z" transform="translate(-11.16129 -52.41935)"/><path class="y" d="M424.72284,413.35069c-.2944,0-.53844.32161-.53844.719,0,.39674.244.71859.53844.71859.29829,0,.53844-.32185.53844-.71859C425.26128,413.6723,425.02113,413.35069,424.72284,413.35069Z" transform="translate(-11.16129 -52.41935)"/><path class="y" d="M431.54591,415.86566c-.298,0-.53844.31886-.53844.71569,0,.39715.24047.71884.53844.71884.29473,0,.53844-.32169.53844-.71884C432.08435,416.18452,431.84064,415.86566,431.54591,415.86566Z" transform="translate(-11.16129 -52.41935)"/><path class="y" d="M431.90363,421.96617c-.29748,0-.53828.32161-.53828.719s.2408.71633.53828.71633c.29829,0,.53844-.31893.53844-.71633S432.20192,421.96617,431.90363,421.96617Z" transform="translate(-11.16129 -52.41935)"/><path class="y" d="M427.59577,421.60845c-.2978,0-.53844.32177-.53844.716,0,.39682.24064.71859.53844.71859.298,0,.53844-.32177.53844-.71859C428.13421,421.93022,427.89374,421.60845,427.59577,421.60845Z" transform="translate(-11.16129 -52.41935)"/><path class="y" d="M408.21332,410.12247c-.29732,0-.53844.31869-.53844.71609s.24112.71908.53844.71908c.29829,0,.53828-.32169.53828-.71908S408.51161,410.12247,408.21332,410.12247Z" transform="translate(-11.16129 -52.41935)"/><path class="y" d="M401.03237,405.096c-.29748,0-.53828.3216-.53828.71835,0,.39731.2408.71617.53828.71617.29812,0,.53876-.31886.53876-.71617C401.57113,405.41762,401.33049,405.096,401.03237,405.096Z" transform="translate(-11.16129 -52.41935)"/><path class="y" d="M394.932,402.94152c-.29812,0-.53892.3225-.53892.71924,0,.39716.2408.71609.53892.71609.29781,0,.53845-.31893.53845-.71609C395.47047,403.264,395.22983,402.94152,394.932,402.94152Z" transform="translate(-11.16129 -52.41935)"/><path class="y" d="M388.46975,399.711c-.2978,0-.53844.32177-.53844.719,0,.39675.24064.71552.53844.71552.298,0,.53893-.31877.53893-.71552C389.00868,400.0328,388.76771,399.711,388.46975,399.711Z" transform="translate(-11.16129 -52.41935)"/><path class="y" d="M382.36941,396.84126c-.29829,0-.53877.31861-.53877.71544,0,.39739.24048.71916.53877.71916.2944,0,.53828-.32177.53828-.71916C382.90769,397.15987,382.66381,396.84126,382.36941,396.84126Z" transform="translate(-11.16129 -52.41935)"/><path class="b" d="M326.46376,380.31741V368.79532l-1.628,1.92147-1.627-1.08345-.54233,11.16008q.71318,1.44372,3.79728-.476" transform="translate(-11.16129 -52.41935)"/><polygon class="f" points="250.44 442.819 253.742 453.056 264.504 453.035 255.788 459.343 259.13 469.568 250.44 463.227 241.749 469.568 245.091 459.343 236.376 453.035 247.136 453.056 250.44 442.819"/><polygon class="f" points="382.809 442.819 386.115 453.056 396.873 453.035 388.158 459.343 391.5 469.568 382.809 463.227 374.118 469.568 377.463 459.343 368.745 453.035 379.506 453.056 382.809 442.819"/><path class="a" d="M351.39629,522.63189a6.8745,6.8745,0,0,0,1.32659,3.517,2.95225,2.95225,0,0,0,2.71682.51051,2.8671,2.8671,0,0,0,2.2987-1.50067,6.39763,6.39763,0,0,0,.11352-3.67946l-.15918-.90523a5.91718,5.91718,0,0,0-1.37113-3.2581,2.884,2.884,0,0,0-2.65642-.60176,2.83047,2.83047,0,0,0-2.19992,1.56115,5.71309,5.71309,0,0,0-.23141,3.45332Zm.433-17.70737c2.1638-.38525,3.80569-.16235,4.937.67706q1.70181,1.25448,2.13628,4.57837l.08712.48711-3.07454.54759-.087-.48711a4.54144,4.54144,0,0,0-1.23121-2.64468,2.60282,2.60282,0,0,0-2.322-.56459,2.73594,2.73594,0,0,0-2.49708,2.32841,22.2938,22.2938,0,0,0,.47853,6.29864,7.34306,7.34306,0,0,1,4.18138-2.34963,4.52767,4.52767,0,0,1,4.17831.93608c.96887.9445,1.68529,2.68605,2.13628,5.22572l.16242.91163q.659,3.68208-.5901,5.803a5.97746,5.97746,0,0,1-4.40324,2.6829q-3.28092.58736-5.12062-.99867-1.84171-1.58872-2.5544-5.60141l-.50832-2.85164q-1.51087-8.5645-.73341-11.42031C347.51837,506.59069,349.12188,505.40847,351.82931,504.92452Zm-11.898,7.743a13.00924,13.00924,0,0,1-1.70229,6.68178,88.01189,88.01189,0,0,1-6.43134,9.9611l9.58977-.73123.20161,2.62347-12.66528.96263-.11028-1.4678-.11142-1.46877a78.8101,78.8101,0,0,0,6.53418-10.081,12.24647,12.24647,0,0,0,1.58456-6.2,3.32543,3.32543,0,0,0-1.004-2.2987,2.85137,2.85137,0,0,0-2.233-.72167,3.0554,3.0554,0,0,0-2.33158.94134,4.05187,4.05187,0,0,0-.3969,2.73172l.05408.71957-3.11373.23457-.05409-.71641a5.62024,5.62024,0,0,1,.99009-4.63238,6.57651,6.57651,0,0,1,4.65683-1.86577,6.35625,6.35625,0,0,1,4.66008,1.14085A5.65976,5.65976,0,0,1,339.93128,512.66755Zm-21.77945,2.37724a6.96628,6.96628,0,0,0-.59317-3.71233,2.9695,2.9695,0,0,0-2.5693-1.04741,2.864,2.864,0,0,0-2.55343,1.01138,6.49921,6.49921,0,0,0-.846,3.58286l-.02122.918a5.96574,5.96574,0,0,0,.68354,3.46829,2.89458,2.89458,0,0,0,2.48121,1.11858,2.842,2.842,0,0,0,2.4791-1.08886,5.6928,5.6928,0,0,0,.91494-3.33349ZM314.169,532.30327c-2.19376-.05732-3.7644-.61026-4.69942-1.65775q-1.412-1.56966-1.17049-4.90946l.01166-.49666,3.12329.0817-.0149.49674a4.51219,4.51219,0,0,0,.674,2.83358,2.59843,2.59843,0,0,0,2.15959,1.023q2.41352.05891,3.06823-1.57387.5922-1.45659.7705-6.6064a6.68133,6.68133,0,0,1-4.4319,1.60035c-1.94325-.04769-3.31114-.63139-4.11451-1.75953q-1.19243-1.67787-1.09842-5.54733l.02121-.92328q.09863-3.74574,1.7086-5.57486a5.80741,5.80741,0,0,1,4.7587-1.74472q3.85879.09862,5.14507,2.19045,1.2896,2.08377,1.125,7.99566l-.07222,2.89091q-.19409,6.98525-1.62472,9.38378C318.5604,531.59965,316.78281,532.37007,314.169,532.30327Zm-20.79989-2.67974,3.58287-20.08145-.692.346a23.03524,23.03524,0,0,1-3.29737,1.23963l.5114-2.86654a19.192,19.192,0,0,0,2.46647-.9445,17.54861,17.54861,0,0,0,2.2838-1.37865l2.46323.43942-4.24406,23.79581-1.5282-.2706Z" transform="translate(-11.16129 -52.41935)"/><path class="a" d="M483.05885,372.72918c-4.92112-.502-7.44265,5.88473-4.85213,9.67455,1.67249,2.45262,4.78638,3.02361,6.95553.831a7.19009,7.19009,0,0,0,.99867-8.366,4.07527,4.07527,0,0,0-3.10207-2.13952m-12.31923-81.26067c-2.147.75462-2.322,3.601-1.67783,5.44223a8.07808,8.07808,0,0,0,3.49574,3.84714l3.50756-1.351a7.4733,7.4733,0,0,0-.4246-5.02929C474.96667,292.48207,472.84626,290.7278,470.73962,291.46851Zm-24.03038-36.87607c-2.67439,2.10244.10283,5.61308,2.77091,3.51388C452.14613,256.00923,449.38153,252.486,446.70924,254.59244Zm-20.91357-20.60459a3.28861,3.28861,0,0,0-.5773,2.87925c.56564,2.69885,3.33251,4.173,5.92626,4.224l2.876-3.71873a6.71975,6.71975,0,0,0-2.38259-3.62221C429.887,232.42354,427.28793,232.18047,425.79567,233.98785Zm-134.32529-33.9458c-1.14927-6.2116-.82459-13.22462,1.78714-19.06684l2.87925,1.42959c-4.50721,9.88142-2.11831,23.85516,5.34571,31.731l-2.26583,2.22324A33.42334,33.42334,0,0,1,291.47038,200.04205ZM260.391,212.23172c1.21307,3.1743,5.39122,1.56756,4.17928-1.60885C263.35723,207.44858,259.17909,209.05548,260.391,212.23172ZM227.80566,219.596a2.38332,2.38332,0,0,0,3.33882.38525c.73115-1.35315-1.02312-4.07645-2.77415-2.97155A1.84931,1.84931,0,0,0,227.80566,219.596Zm-31.7203,10.41209c-1.38716-1.44125-.85438-4.139,1.4231-3.84181,2.927.37894,3.52554,4.96355.2706,4.69295A2.672,2.672,0,0,1,196.08536,230.00808ZM176.266,298.56525c2.01645.92337,4.07645-1.04417,4.82574-2.74338a6.84159,6.84159,0,0,0,.11141-4.8531l-3.21883-1.43817c-1.471.37683-2.75294,2.112-3.32717,3.41526C173.81135,294.85834,174.19336,297.61759,176.266,298.56525ZM169.07388,323.017a2.2879,2.2879,0,0,0,2.86645-1.52286c.50508-1.85613-.98911-3.74529-2.29239-4.8999a5.04428,5.04428,0,0,0-2.36137,3.21559A2.60863,2.60863,0,0,0,169.07388,323.017ZM170.6254,428.4078a4.85826,4.85826,0,0,1,2.53966-2.37619c2.52363-1.12814,5.872-.91163,7.623,1.46456a5.04669,5.04669,0,0,0,1.64286-6.0652c-.9658-2.15013-3.95-2.64363-6.06828-2.57781l-8.348,3.77817Zm278.81022,36.07584-7.91291-.208-.13473.87235,3.1913,2.771a7.703,7.703,0,0,0,4.245-2.73172Zm-.33748-4.98475a2.832,2.832,0,0,0-2.69885-.61982,5.35856,5.35856,0,0,0-2.89625,1.68423l-1.10149,1.26716,7.49365.33327a3.62222,3.62222,0,0,0-.09554-1.46456A2.72017,2.72017,0,0,0,449.09814,459.49889Zm12.92423-18.74531a2.86841,2.86841,0,0,0-1.88058-.46589,2.087,2.087,0,0,0-1.748,2.68929,2.9555,2.9555,0,0,0,3.0713,1.9941,2.07944,2.07944,0,0,0,1.748-2.6893A2.86321,2.86321,0,0,0,462.02237,440.75358Zm21.2593-12.072a2.62145,2.62145,0,0,0-1.07073.09336,1.343,1.343,0,0,0-.70685.54127,1.21524,1.21524,0,0,0-.03288.884,1.26925,1.26925,0,0,0,.60694.5986,1.03544,1.03544,0,0,0,.85115.05409,1.14136,1.14136,0,0,0,.67722-.59852,1.21682,1.21682,0,0,0,.07854-.86288A1.09071,1.09071,0,0,0,483.28167,428.68163Zm-2.37611-26.00123a35.74671,35.74671,0,0,1-11.1306-4.62712,27.5284,27.5284,0,0,1-5.48466-4.53911l2.50031-1.99725a24.7874,24.7874,0,0,0,5.03253,4.17822,32.2116,32.2116,0,0,0,20.40833,4.76825,24.57523,24.57523,0,0,0,6.618-1.67573l1.36578,2.89091a27.21926,27.21926,0,0,1-7.28232,1.78083A35.60224,35.60224,0,0,1,480.90556,402.6804ZM177.43989,448.08489q-1.30077-2.13-2.53967-4.30138c-2.37627,1.5367-6.92169,5.24588-5.34248,7.95955.86605,1.489,3.03844,1.02943,4.26851.31626a9.25352,9.25352,0,0,0,1.83589-1.41679A14.29446,14.29446,0,0,0,177.43989,448.08489Zm-5.506-170.17508q3.29526-6.27693,7.07667-12.24716a8.78285,8.78285,0,0,0-6.6945-.88726c-3.64861,1.21518-7.26758,5.09941-7.26127,9.1153C165.06009,277.73783,168.81478,278.41165,171.93385,277.90981ZM157.80093,387.22088q.78969,4.57513,1.81693,9.058l.03919.16234,7.85559-1.46246a4.00869,4.00869,0,0,0,3.43858-4.62606c-.14542-.81293-1.2555-2.45789-3.30061-4.88606Zm-2.373-35.13127q-.10348,3.00864-.10818,6.04593v.28987l5.70328.05943-.15919,4.84679c-.04243,1.32028,1.81046,1.63638,2.5842.08388a21.94528,21.94528,0,0,1-.29829-5.2343l3.28571.10834c-.04874,1.5133-.28015,3.27615.41181,4.63869.75252,1.471,2.25,1.19186,3.14984.0277a4.22829,4.22829,0,0,0,.83625-2.47392c.10833-4.001-2.6744-6.99683-6.31767-8.22691Zm29.75178-90.19347q-.9743,1.41687-1.922,2.8548l16.72684,10.91733-1.62812,2.50355-16.7351-10.88753a169.81784,169.81784,0,0,0-9.22994,16.53672l3.58918,1.54942a6.53957,6.53957,0,0,1,.53811-4.66315,7.33017,7.33017,0,0,1,9.47933-3.93411c3.6104,1.60253,4.486,6.09484,2.96621,9.49407l-3.23049-.8309c.77584-1.74164,1.18862-4.9901-.95089-5.93792-2.08754-.92645-4.40956.62831-5.2586,2.55132a7.74805,7.74805,0,0,0-.32484,4.75562l11.37156,5.08127-1.21825,2.72217-4.7174-2.10551a7.84464,7.84464,0,0,1-4.47012,8.62187,6.07211,6.07211,0,0,1-5.12062.1655,7.24752,7.24752,0,0,1-3.38968-9.68726,6.43375,6.43375,0,0,1,3.1105-3.5108l-3.61882-1.6576a168.70243,168.70243,0,0,0-6.98,17.44827l19.02538,5.26184-.80337,2.876-19.1274-5.36676q-.87543,2.7475-1.65451,5.53874c4.53376-.57844,9.63851.27918,12.37655,4.25685a6.9,6.9,0,0,1,1.125,5.92934c-.78847,2.87277-4.06139,4.27466-6.83457,3.51372a5.74489,5.74489,0,0,1-4.15483-6.9672,6.84113,6.84113,0,0,1,2.23506-3.63695,9.83149,9.83149,0,0,0-5.69485.433q-1.6508,6.4392-2.81237,13.062l19.58682,3.62756-.54751,2.93334-19.52107-3.64019q-.53658,3.44319-.935,6.93124l19.7609,2.44623-.35448,2.963-19.72592-2.42178q-.19723,2.08536-.3459,4.1877l.02753.00324-.03919.14429q-.10347,1.46157-.18363,2.9335l19.849.73325-.09976,2.9811-5.16515-.1676a9.65644,9.65644,0,0,1,3.96487,8.1516c-.0923,3.39389-2.493,6.42924-6.0822,6.33257a3.57874,3.57874,0,0,1-2.997-1.77759,4.01253,4.01253,0,0,1-6.43458,1.13453c-1.32659-1.42327-1.02523-3.14142-.9658-4.919l-2.28914-.09668q.12266,6.7149.75576,13.29466l19.70357-2.35287.35221,2.96305-19.74065,2.40064q.38841,3.39874.90523,6.76032l19.47977-3.60408.54751,2.93334-6.09807,1.13664,9.87623,11.43731-2.99276,1.88374-4.19418-5.06014a8.228,8.228,0,0,1-5.8848,4.85537l-7.70693,1.43484q.39788,1.59346.82151,3.17106l-3.05657.45424a172.04359,172.04359,0,0,1-4.61441-23.89565l-4.21847,3.00556c-.8024.572-2.19587,1.83807-2.13012,2.96621.016.27383.81309,1.03154,1.03591,1.23113l-2.46436,1.681c-.88709-.70362-2.03329-1.83807-2.11506-3.01714-.11676-1.7299,2.615-4.00738,3.86625-4.93067l5.66392-4.18462-.07416-.74929c-2.69254,1.00822-5.25341,1.92519-6.34536,2.44623-1.40723.67074-2.9058,1.44974-1.56431,2.99916l-2.22551,1.66626a3.51522,3.51522,0,0,1-1.86892-2.84848c-.19206-2.74978,9.1906-6.03225,11.77155-6.86542q-.581-7.09347-.58572-14.341,0-8.835.86912-17.45361c-2.34648,1.125-9.11,4.20584-9.34136,6.2869a4.03517,4.03517,0,0,0,1.08886,2.75941l-3.20927,1.1185a6.1763,6.1763,0,0,1-1.61-4.32259c.27707-2.43975,5.36369-5.32224,7.37382-6.25726l6.05241-2.81658q.39787-3.34773.92644-6.65417c-7.09674,1.24271-11.883-3.3419-10.58925-10.34213a12.715,12.715,0,0,1,13.3783-10.2168l-.54751,2.93334a9.29047,9.29047,0,0,0-9.59609,7.88521c-.554,3.01722.8628,6.62988,4.15062,7.22306a12.15267,12.15267,0,0,0,3.671-.29181A171.73766,171.73766,0,0,1,170.497,280.71683c-4.21215-.42136-7.96376-.50314-8.53264-6.29969-.56241-5.75541,4.17928-11.1455,9.51852-12.6737a12.35177,12.35177,0,0,1,9.27448,1.22149c.56354-.85762,1.13777-1.70973,1.71507-2.55456Zm19.17825-23.18765q-2.2017,2.22866-4.31936,4.53894c2.67974-.09538,4.41588.77908,6.26261,3.29429l2.96945-3.09575Zm17.53-15.46923q-2.31927,1.78293-4.58137,3.64343a7.28438,7.28438,0,0,1,5.91444,3.94366l3.257-2.78905,2.13952,2.49724-4.25037,3.64019a6.2991,6.2991,0,0,1-1.2853,4.80759c2.48769,1.12482,5.08775,1.84658,6.39313-1.13777.63463,1.33939,1.369,4.08908.04453,5.21941-2.34955,2.00365-11.75034-2.2532-13.76257-4.61441-1.28724-1.50391-.41812-3.53509,1.67265-2.978a5.49526,5.49526,0,0,1,2.20526,1.20352,3.9155,3.9155,0,0,0,1.15786-2.72006c.06574-3.7006-3.57121-4.92743-6.74437-4.31936q-3.93532,3.40676-7.654,7.04476l14.43769,13.72112-2.06746,2.15442-7.12006-6.83246-3.87144,4.03386a6.32948,6.32948,0,0,1-.80661,4.91577c2.581.87252,5.2437,1.33614,6.2456-1.75945.764,1.26926,1.76593,3.92876.55933,5.18637-2.13644,2.22874-11.91292-1.09211-14.15106-3.24-1.42634-1.369-.76094-3.47469,1.37113-3.12539a5.43587,5.43587,0,0,1,2.31683.98053c2.88767-3.60084-1.45614-8.09849-5.70975-6.74761q-2.08535,2.37369-4.08584,4.8225l-2.34016-1.98891A173.324,173.324,0,0,1,219.896,220.896Zm51.53868-26.99335c-1.08352.3459-2.15976.70362-3.237,1.07073l7.238,18.67527-2.78273,1.074-4.39255-11.4012-4.52421,1.74147c2.01855,1.30651,2.49076,4.52745,1.70229,6.598a4.80972,4.80972,0,0,1-6.85579,2.64152c-4.23871-2.20219-4.78314-8.9349-.20371-10.69758l8.69911-3.35162-1.6937-4.28746a169.36291,169.36291,0,0,0-18.6424,8.05072l8.98267,17.9472-2.67116,1.32983L246.084,207.72889q-3.4257,1.80358-6.75392,3.76l10.7698,16.76813-2.51845,1.60043-3.14871-4.95723a6.75246,6.75246,0,0,1-3.14676,6.17548c-4.23872,2.684-9.81357-.72807-12.81589-3.829a9.03555,9.03555,0,0,0,3.39922-4.38624,4.76351,4.76351,0,0,1-6.58194-1.66406c-2.33481-3.742.52953-8.67272,4.92743-7.47568a5.31683,5.31683,0,0,1,3.09883,2.37724c2.01548,3.18272,2.44526,7.71551.03612,10.83248,6.48235,4.7778,9.26816-.60176,7.933-6.98857l-4.39579-6.99052-.50185.30979v.31529h-.05732l-.0902-.22493c-.54136.33311-1.07721.66751-1.61533,1.00709l-1.61-2.62031a172.28989,172.28989,0,0,1,39.42415-18.40451Zm207.37057,237.775a173.72721,173.72721,0,0,1-56.915,66.29774l-1.85936-2.45157q1.2959-.89778,2.57253-1.82009l-4.20583-5.3424,6.73594-5.30742a3.45127,3.45127,0,0,0,1.266-2.67124,4.68374,4.68374,0,0,0-1.10053-3.14353,5.72874,5.72874,0,0,0-3.49574-2.15117,4.11818,4.11818,0,0,0-3.65816.90628,5.972,5.972,0,0,0-1.46781,2.355,5.88209,5.88209,0,0,1,.67075.37043,1.69663,1.69663,0,0,1,.49342.50516,3.59834,3.59834,0,0,1,.812,2.53327,2.92014,2.92014,0,0,1-1.11656,2.19895,2.52783,2.52783,0,0,1-2.36979.36719,4.39016,4.39016,0,0,1-2.44623-1.65775,3.40816,3.40816,0,0,1-.69827-1.60675,4.22691,4.22691,0,0,1,.1242-1.83175l-5.83072-3.48417,1.32336-2.83673,5.68643,3.59768a9.89463,9.89463,0,0,1,2.78581-3.09252,7.24828,7.24828,0,0,1,5.93257-1.44651,8.7812,8.7812,0,0,1,5.59818,3.42684,7.98987,7.98987,0,0,1,1.82325,5.50482,6.11916,6.11916,0,0,1-2.29562,4.73853l-4.39579,3.46506,2.22664,2.84A170.7724,170.7724,0,0,0,441.08969,482.503l-13.76257-14.29851,2.15328-2.06632,13.73925,14.34417q1.11932-1.07935,2.21709-2.17563,1.54414-1.54245,3.048-3.12539l-14.90666-12.87006,1.95588-2.24995,3.1913,2.77423a10.54138,10.54138,0,0,1,2.4187-4.573,6.94884,6.94884,0,0,1,4.96986-2.49723,6.84006,6.84006,0,0,1,5.29794,1.78722,5.81228,5.81228,0,0,1,1.96123,4.6208,7.36131,7.36131,0,0,1-2.06632,5.17156,10.26021,10.26021,0,0,1-3.89071,3.04377l3.048,2.67221a170.996,170.996,0,0,0,12.08151-14.723L446.02036,447.706l1.62488-2.50242,10.24983,6.65417,2.63828-4.06682a3.36144,3.36144,0,0,1-1.28837-.16874,4.3431,4.3431,0,0,1-1.28416-.61131,6.02117,6.02117,0,0,1-2.67764-3.56165,4.83745,4.83745,0,0,1,4.00423-6.16382,6.53276,6.53276,0,0,1,4.3587.96571,6.00383,6.00383,0,0,1,2.6744,3.56165,4.794,4.794,0,0,1-.59221,4.01589l-5.07819,7.82157,3.58286,2.33158a169.64841,169.64841,0,0,0,11.26-18.32071l-17.875-7.98716,1.21518-2.72216,4.72048,2.10874a8.50822,8.50822,0,0,1-.98377-3.79087,9.32531,9.32531,0,0,1,.86928-4.0222,5.56976,5.56976,0,0,1,3.568-3.14669,7.09425,7.09425,0,0,1,5.16516.30776,7.33383,7.33383,0,0,1,2.75828,2.009,3.32522,3.32522,0,0,1,.89681,2.48234,3.66732,3.66732,0,0,1,2.70727-.87236,9.37929,9.37929,0,0,1,3.72181.88718,8.06806,8.06806,0,0,1,4.103,3.83224,5.32833,5.32833,0,0,1,.24939,4.85,3.84748,3.84748,0,0,1-2.38583,2.12041,4.63434,4.63434,0,0,1-3.36311-.19522,4.54347,4.54347,0,0,1-2.35813-2.32,3.554,3.554,0,0,1-.07854-3.05641,3.15058,3.15058,0,0,1,1.32124-1.4529,2.57052,2.57052,0,0,1,1.78407-.42663,1.369,1.369,0,0,0-.364-.449,3.531,3.531,0,0,0-.7705-.46905,4.65007,4.65007,0,0,0-2.92378-.364,2.68964,2.68964,0,0,0-1.94114,1.45929l-.83624,1.87419-3.00232-1.34149.83624-1.87419a4.07353,4.07353,0,0,0-.16242-2.40056,3.09521,3.09521,0,0,0-1.40724-1.56755,3.595,3.595,0,0,0-2.65626-.1655,2.9077,2.9077,0,0,0-1.85629,1.62156,6.06561,6.06561,0,0,0-.15384,4.26211,11.53159,11.53159,0,0,0,2.62663,4.60275l7.95647,3.54675q.60483-1.186,1.18862-2.38258ZM490.8571,319.73776q-.72288-3.13131-1.56123-6.22132l-5.7436,1.645-1.30214-4.67158c-.3608-1.29064-2.21692-1.02522-2.49076.695a21.84782,21.84782,0,0,1,1.85613,4.90411l-3.16782.88094c-.40646-1.45614-.71641-3.21575-1.7873-4.29927-1.16093-1.17583-2.50874-.4659-3.01074.91478a4.30581,4.30581,0,0,0-.05409,2.61189c1.06117,3.85022,4.64728,5.872,8.49216,5.95266Zm4.23548,31.95478q-.1766-4.70243-.60176-9.33164l-8.26415.64937c-6.1818.484-5.508,9.76482.70685,9.29569Zm3.19227,5.74586.00227.69714q0,2.216-.05425,4.41393a16.58537,16.58537,0,0,0,6.08334-1.056C510.56489,358.63221,504.16868,354.05715,498.28485,357.4384Zm-19.0338-78.27422q3.41938,6.65586,6.272,13.63739c3.619-2.96944,5.82116-9.08566,3.85038-13.06851C486.92818,274.79073,480.28259,274.96465,479.25105,279.16418Zm-3.28263-6.08318q.90264,1.59807,1.77564,3.2198c4.747-4.92209,11.28655-4.66639,14.57437,1.96446,2.78581,5.61939-.67382,13.53651-5.69162,17.31257a172.37548,172.37548,0,0,1,11.621,58.91542c10.84834-4.04649,15.71958,4.87869,8.349,9.23853-2.09385,1.23947-5.48773,1.77758-8.46252,1.75313a173.3193,173.3193,0,0,1-2.98435,25.61065l-3.05106-.40963q.38039-1.94847.71317-3.91613l-5.662-.78a7.897,7.897,0,0,1-2.80913,1.31817c-6.01435,1.55476-11.09465-3.6614-10.391-9.65657a8.63041,8.63041,0,0,1,9.46135-7.88206c4.77991.53277,7.3918,5.32118,6.87068,9.83373a7.66637,7.66637,0,0,1-1.14619,3.62l4.15483.55293a171.25737,171.25737,0,0,0,1.76916-18.34726L475.06,364.76008l.09667-2.98111,20.00494.66751q.04932-2.14754.051-4.31094,0-1.75427-.03611-3.50108l-19.728,1.53986-.22915-2.97463,5.85712-.44581a5.72891,5.72891,0,0,1-2.46-4.4881,7.74256,7.74256,0,0,1,7.38208-8.23128l8.21217-.46265q-.36922-3.41161-.87447-6.78048L473.724,336.4463l-.5467-2.93334,19.68026-3.7367q-.59537-3.55153-1.33923-7.04574l-.02979-.1051L472.479,327.92968l-.80337-2.87293,4.98168-1.39023a9.59987,9.59987,0,0,1-6.22973-6.58518c-.90313-3.26985.44792-6.91635,3.90123-7.86725a3.6078,3.6078,0,0,1,3.39712.798,4.01263,4.01263,0,0,1,5.79348-3.01187c1.70018.95413,1.922,2.68605,2.40056,4.40113l2.57788-.72483q-1.68747-5.812-3.77169-11.45011l-18.76968,7.275-1.07413-2.78581,4.16665-1.60674c-4.74071-3.02046-4.96888-11.23036.61974-13.42623,3.66464-1.438,7.61462.77908,8.97408,4.33749a12.22,12.22,0,0,1,.92969,5.03674l4.139-1.50489a170.21539,170.21539,0,0,0-7.50839-16.59081l-17.9323,8.99206-1.32983-2.67115,17.91741-8.85636q-.79431-1.47566-1.62165-2.93334Zm-37.3907-41.60512q-5.6449-5.04954-11.73237-9.59917a10.9416,10.9416,0,0,1-2.00365,6.0291,6.21261,6.21261,0,0,1-7.57219,1.86778c.18995,1.83815.78,6.84089,2.29238,8.00829a2.963,2.963,0,0,0,2.69869.59869,6.71609,6.71609,0,0,1,1.177-6.21808c2.424-3.2368,7.09885-3.41833,10.20951-1.01453a7.08778,7.08778,0,0,1,2.67115,3.25283Zm12.77346,8.174q5.42361,5.77533,10.31881,12.03584c6.12464-9.0272-2.50258-20.89851-8.556-15.09548A11.94687,11.94687,0,0,0,451.35118,239.64983ZM419.79735,213.204a173.77847,173.77847,0,0,1,27.815,22.58914q.81664.81665,1.6184,1.64285a12.564,12.564,0,0,1,1.82-2.997c9.10574-8.74494,21.91856,6.85044,12.49024,19.68446q2.36541,3.14394,4.59416,6.39523l-2.44623,1.86455-.94134-1.35946-.04777.069-1.05065-1.33193L448.144,271.98047l-1.8435-2.34647,9.59609-7.56053-3.00232-3.811c-.64953,2.3136-3.59129,3.71549-5.79979,3.57428a4.80488,4.80488,0,0,1-4.54866-5.77015,6.41654,6.41654,0,0,1,6.54907-5.20435,4.827,4.827,0,0,1,3.61364,1.84965l5.769,7.32492,3.32182-2.62015-.069-.58265A170.08607,170.08607,0,0,0,448.98981,241.629l-14.50862,13.88678-2.0673-2.15118,14.52142-13.88046q-.74525-.7671-1.49857-1.51865-2.278-2.27967-4.6442-4.4732l-11.88621,15.37256-2.35813-1.82325,2.442-3.16167a7.27084,7.27084,0,0,1-3.965-1.577,4.97309,4.97309,0,0,1-1.18215-1.09534,5.73892,5.73892,0,0,1-6.57887-.451c-2.35278-1.77435-3.07454-7.26435-3.33979-10.00886a7.0407,7.0407,0,0,0-2.54809-4.936l2.15749-2.789a8.73807,8.73807,0,0,0,2.81237,3.065c1.70018,1.31186,4.65376,1.91346,6.13743-.00842,1.1938-1.55265,1.49841-4.675.76726-6.81448q-2.51359-1.77661-5.09633-3.465Zm-20.40929-8.03808q-2.90517-1.41372-5.87833-2.717c.816,4.11775-2.62031,8.80227-6.98744,7.87583a5.02023,5.02023,0,0,0,2.79747,5.62263c2.15652.95607,4.70784-.64419,6.24771-2.09709Zm-24.02083-12.68326q2.44509.74013,4.85845,1.54617a16.11645,16.11645,0,0,0,.71528-6.011C379.99119,181.19172,373.58009,186.186,375.36723,192.48265Zm-50.10052-7.36751a173.08829,173.08829,0,0,1,47.00477,6.46746c-.58055-10.64674,9.30427-13.79658,11.465-5.11107a17.16848,17.16848,0,0,1-.70686,8.52519,171.95863,171.95863,0,0,1,23.30231,10.24983l-1.36254,2.756q-1.44408-.7671-2.90694-1.508l-8.08262,18.22525-2.72638-1.21518,2.30194-5.14831c-4.01588,2.56088-8.23986.13586-9.50378-4.24406a13.84564,13.84564,0,0,1,.11789-7.67194c6.0014,2.68718,7.87567-3.09463,5.52595-5.6066q-3.73614-1.53468-7.5594-2.89091l-6.42292,19.04562-2.83147-.94458,6.43247-19.07639q-3.54205-1.18587-7.15083-2.2234L367.59667,214.175l-2.90581-.67706,2.88135-12.35744-6.53433-1.52513c-2.13-.49666-3.79614,1.44659-4.23224,3.35373a6.368,6.368,0,0,0,2.35279,6.34211l-1.91345,2.44833c-4.37992-3.47453-5.00613-10.70924-.32161-14.2147a5.68033,5.68033,0,0,1,4.86055-1.1334l6.53758,1.525.95932-3.98916a169.41169,169.41169,0,0,0-20.64913-4.16341c2.45465,3.932.52322,11.83746-5.4751,12.49007,1.70325,2.64152,4.39255,5.02411,7.61672,5.40935a4.79858,4.79858,0,0,1-4.40648,2.3136c-3.92876-.50524-6.288-8.5613-10.18926-9.02833l1.16109-3.41089A9.87181,9.87181,0,0,0,341.328,198.743c2.45157.27918,4.9901-1.02943,5.31592-3.62205a8.36614,8.36614,0,0,0-2.51521-5.89646q-5.70393-.62719-11.51586-.87868l-.62621,20.10469-2.98111-.09975.623-20.10469q-2.17134-.05733-4.36179-.05635-1.662,0-3.31226.03287l1.44642,19.80656-2.97463.22931-.60823-7.967-5.94732.45423c.21327,2.858-2.88767,4.70574-4.88824,2.63294-1.87734-1.94632-1.177-5.942,1.627-6.1554l-.64322-8.435c-.15708-2.0673-2.374-1.98552-2.25093-.06364A2.27657,2.27657,0,0,0,309.15977,190.5l-1.49225,2.4697c-4.1728-1.38715-3.80569-8.68227.80661-9.01667a4.20505,4.20505,0,0,1,4.41279,3.90544l.73439,9.60564,5.94731-.45423-.60176-8.70349c-1.30311.04891-2.59893.10834-3.89265.18688l-.21116-3.06612Q320.02553,185.12162,325.26671,185.11514ZM214.216,486.77886l11.9437-15.44785,2.35813,1.82535-4.885,6.321,4.71935,3.64545c1.75119-2.26477,5.31073-1.56116,5.39446,1.31809.07853,2.71051-3.1105,5.20127-5.33066,3.48417l-5.17487,6.69344c-1.24805,1.61208.46071,3.06814,1.62812,1.5516a2.2784,2.2784,0,0,0,.11449-2.28283l2.76686-.83309c2.16591,3.83541-2.99293,8.96777-6.64154,6.15111a4.18127,4.18127,0,0,1-.65909-5.85711l5.89015-7.62-4.72063-3.64869-5.13763,6.6213q1.49338,1.24962,3.01722,2.46112l-1.91669,2.40275a173.71339,173.71339,0,0,1-38.35326-42.609,16.9833,16.9833,0,0,1-3.898,3.68156c-5.61956,3.31859-11.63909-.82143-8.31193-7.24111,1.143-2.20534,3.86836-4.60275,6.44932-6.17556a171.96918,171.96918,0,0,1-10.43557-22.828l2.86338-1.11858q.48387,1.3038.987,2.5927l17.88453-8.089,1.23007,2.71691-5.13762,2.32526c4.68663.74289,6.2456,5.33608,4.28648,9.4824a13.71944,13.71944,0,0,1-5.177,5.65559c-.89033-1.97078-3.27291-4.19953-5.57793-3.20717-1.46149.63139-2.47278,1.733-2.07588,3.394l.0732.30032q1.79556,3.69156,3.76537,7.28353l17.01865-9.98238,1.50375,2.57569-17.14691,9.86458q.77513,1.35784,1.576,2.70411l.12631.12308-.03935.02445q1.10159,1.845,2.25093,3.66667l15.80234-11.37684,1.74163,2.42186-10.29759,7.41187,3.92358,5.44863c1.28092,1.77759,3.80569,1.39234,5.39332.25254a6.33977,6.33977,0,0,0,2.39846-6.3209l3.05025-.589a9.51018,9.51018,0,0,1-3.7061,9.33181c-2.93333,2.10875-7.5,2.45157-9.80709-.75245l-3.92034-5.44854-2.96313,2.13312a170.22542,170.22542,0,0,0,10.20723,13.96742l1.97613,2.30826c-.06251-1.6312,1.82973-3.53194,2.95778-4.49449a7.60956,7.60956,0,0,1,9.34978-.641c.53488-3.09252.16874-6.66688-1.94308-9.13651a4.79429,4.79429,0,0,1,4.8097,1.28416c2.52995,3.03309-1.16951,10.55646,1.38375,13.544L208.636,469.772a10.00018,10.00018,0,0,0-2.13-3.57647c-1.60043-1.871-4.365-2.60541-6.3656-.93284-1.645,1.37218-3.1615,4.25993-1.50375,6.19783l.37246.433q2.961,3.28409,6.08949,6.4132l1.24822,1.23639,13.69359-14.25284,2.15425,2.06624-13.667,14.28054Q211.31184,484.27316,214.216,486.77886Z" transform="translate(-11.16129 -52.41935)"/><polygon class="b" points="96.213 664.475 41.034 606.89 104.288 572.473 142.674 634.995 96.213 664.475"/><polygon class="z" points="96.214 664.475 41.034 606.89 104.288 572.473 142.674 634.995 96.214 664.475"/><line class="aa" x1="92.87998" y1="625.10145" x2="142.92139" y2="635.10384"/><polygon class="b" points="526.915 664.475 582.095 606.89 518.84 572.473 480.454 634.995 526.915 664.475"/><polygon class="z" points="526.916 664.475 582.095 606.89 518.841 572.473 480.454 634.995 526.916 664.475"/><line class="aa" x1="530.26271" y1="625.10145" x2="480.22519" y2="635.10384"/><polygon class="f" points="495.661 609.646 497.863 609.161 527.2 625.066 481.744 634.359 495.661 609.646"/><polygon class="f" points="122.748 609.218 126.072 607.6 142.69 634.786 93.858 624.131 122.748 609.218"/><path class="b" d="M320.79854,617.14252c78.94464,0,153.43148,22.235,219.095,61.614l44.37231-63.07365A527.58887,527.58887,0,0,0,54.482,617.3379l49.884,59.83037C169.37978,638.77841,242.922,617.14252,320.79854,617.14252Z" transform="translate(-11.16129 -52.41935)"/><path class="ab" d="M320.7987,617.14252c78.94448,0,153.43148,22.2349,219.095,61.61387l44.37215-63.07365A527.58862,527.58862,0,0,0,54.482,617.3379l49.884,59.83028C169.37994,638.77841,242.922,617.14252,320.7987,617.14252Z" transform="translate(-11.16129 -52.41935)"/><path class="a" d="M527.49852,617.05435v-2.35919q11.84556,5.19916,23.69079,10.38562v2.34963c-1.43266-.62613-2.86435-1.25227-4.24826-1.85929v23.80116c-.833-.36614-1.66294-.72168-2.44833-1.06766v-16.2173q-4.852-2.122-9.69892-4.24511a1.89007,1.89007,0,0,0-1.94114.0966,2.66964,2.66964,0,0,0-.78427,2.11725,15.15445,15.15445,0,0,0,1.70877,6.1405,44.57535,44.57535,0,0,0,4.75869,7.68045c-.50832.3842-1.01664.77892-1.52513,1.16636a48.76349,48.76349,0,0,1-5.45065-8.87757,18.243,18.243,0,0,1-1.98568-7.19545,4.15406,4.15406,0,0,1,1.56966-3.61048,3.4757,3.4757,0,0,1,3.64975-.13473q4.85059,2.12046,9.69892,4.244v-4.9667c-5.68-2.493-11.363-4.98484-16.9942-7.44807m-11.13061-4.591v-2.36777c4.01589,1.541,8.07955,3.26134,12.14418,5.05172v2.34963c-1.43169-.62613-2.81561-1.23428-4.2026-1.83815v23.85006c-.82993-.36727-1.66407-.73123-2.494-1.0687v-8.65475a7.41691,7.41691,0,0,1-3.69428,1.67581,6.91572,6.91572,0,0,1-4.01913-.41181,11.3591,11.3591,0,0,1-4.71092-3.36951,7.51026,7.51026,0,0,1-1.94-4.67813,5.11562,5.11562,0,0,1,.50833-2.43351,3.50715,3.50715,0,0,1,1.43168-1.3,21.13869,21.13869,0,0,1-3.04685-4.58153,11.85649,11.85649,0,0,1-1.15575-4.1188,4.0749,4.0749,0,0,1,1.43153-3.39922,3.67556,3.67556,0,0,1,3.55647-.23141,7.93288,7.93288,0,0,1,3.4172,2.52055,6.36215,6.36215,0,0,1,1.29372,3.74626,2.63288,2.63288,0,0,1-1.29372,2.45473,3.56707,3.56707,0,0,1-3.18595.04777v-2.62978a1.89514,1.89514,0,0,0,1.38391.10607.8809.8809,0,0,0,.60176-.92118,2.46563,2.46563,0,0,0-.64629-1.51339,4.30517,4.30517,0,0,0-1.57063-1.18222,1.74483,1.74483,0,0,0-1.802.21967,1.91292,1.91292,0,0,0-.692,1.73305,7.26431,7.26431,0,0,0,.97211,3.31227,15.0159,15.0159,0,0,0,2.72217,3.60723,8.48891,8.48891,0,0,1,3.742.6463c.32468.12315.64726.241.96887.36727.415,1.03786.83317,2.06624,1.24805,3.10734-.692-.2706-1.34149-.51148-1.98567-.76087a5.00419,5.00419,0,0,0-3.83533-.20169,2.3109,2.3109,0,0,0-1.61532,2.32842,3.88773,3.88773,0,0,0,1.248,2.47278,9.11627,9.11627,0,0,0,2.95454,2.02171,5.59036,5.59036,0,0,0,3.9746.087,7.99816,7.99816,0,0,0,3.73881-2.38574v-11.552C519.96892,613.8292,518.16688,613.1468,516.36791,612.46334Zm-18.79931-9.53876c-1.57079-2.53-3.08944-5.04524-4.61765-7.55414-1.51978-2.49715-3.05122-4.96678-4.57295-7.413.554-.33642,1.15559-.6739,1.75427-1.01988,1.6184,2.80071,3.32393,5.6534,4.94233,8.45945,1.61209,2.80387,3.32393,5.65016,4.988,8.47216Q498.816,603.38991,497.5686,602.92458Zm-4.38624.69091V601.251q5.46976,2.07587,10.94373,4.17612v2.36769c-1.43152-.54759-2.86321-1.09842-4.24713-1.628V630.1133c-.83317-.31618-1.66407-.63463-2.44946-.93284V605.235C495.99781,604.68735,494.56628,604.14826,493.18236,603.61549Zm-11.1306,11.9075a3.85029,3.85029,0,0,0,1.61516.21011,2.93365,2.93365,0,0,0,1.33825-.31521c-2.26145-2.6659-4.47854-5.31276-6.6966-7.9691a2.04423,2.04423,0,0,0-.50832.98911,3.84447,3.84447,0,0,0-.23141,1.41784,5.5583,5.5583,0,0,0,1.29372,3.378A6.48987,6.48987,0,0,0,482.05176,615.523Zm-8.91692-18.47682v-2.3889c7.02144,2.28065,14.04272,4.55182,21.06093,6.97894v2.36768c-1.42845-.53277-2.81545-1.03154-4.2026-1.50383v24.05483c-.82993-.2706-1.66083-.54233-2.494-.80021V617.5532a4.483,4.483,0,0,1-2.494.9445,6.51053,6.51053,0,0,1-2.95341-.31837,9.59961,9.59961,0,0,1-4.85-3.57971,9.08991,9.08991,0,0,1-2.078-5.54409,5.91051,5.91051,0,0,1,2.078-4.92848,4.78554,4.78554,0,0,1,4.85-.761,9.44619,9.44619,0,0,1,3.69428,1.9856c-.27708.71-.50833,1.42319-.74087,2.14486a7.61371,7.61371,0,0,0-2.95341-1.49217,5.70483,5.70483,0,0,0-1.38716-.23133.832.832,0,0,0-.82993.30671q3.46093,4.174,6.928,8.32674a9.33449,9.33449,0,0,1,.73649-.81827V601.69353C482.69481,600.144,477.89369,598.583,473.13484,597.04617Zm-24.614-7.1816v-2.3974q12.74794,3.37954,25.58513,7.50847v2.37724c-1.43168-.451-2.8156-.90523-4.20259-1.35736v24.09094c-.82993-.27067-1.6631-.54127-2.493-.80871v-11.916c-2.58744.40541-5.12694.91381-7.66563,1.46456a.88722.88722,0,0,0-.695.295.6288.6288,0,0,0-.32161.502,3.3923,3.3923,0,0,0,.0902.49982c.27708.47229.45958.77261.5561.92337a5.95658,5.95658,0,0,1,.46071.9445,2.98976,2.98976,0,0,1,.138,1.15575,1.58587,1.58587,0,0,1-.32161,1.08563.51194.51194,0,0,1-.64629.25262,10.07368,10.07368,0,0,1-3.88115-2.57254q-2.356-2.06154-2.356-3.07981a1.45778,1.45778,0,0,1,.415-.95089,2.49651,2.49651,0,0,1,1.11009-.51156c3.048-.68241,6.09483-1.39558,9.14606-2.03977-.92661-1.14295-1.851-2.2923-2.72541-3.43534a10.235,10.235,0,0,0-2.26259-2.03976,7.29314,7.29314,0,0,0-2.68087-1.14619c-.18574-.04769-.32145.07854-.41489.37675a8.28627,8.28627,0,0,0-.09343,1.09421,3.3347,3.3347,0,0,1-.41489,1.81159c-.3216.44144-.692.59536-1.06247.451-.64629-.16235-1.43153-1.13446-2.44833-2.93334a9.841,9.841,0,0,1-1.52189-4.24405c0-.53909,1.38392-.42444,4.20276.32476.50833.13481,1.10685.294,1.84658.49035a13.10107,13.10107,0,0,1,3.23162,1.60885,14.66155,14.66155,0,0,1,3.60294,3.186,32.52464,32.52464,0,0,1,3.00232,4.07953c.554-.0753,1.108-.16234,1.70974-.24088v-9.527C461.08313,593.22242,454.80239,591.52864,448.52084,589.86457Zm-9.93033-2.64678V584.8203c1.386.36614,2.81544.75139,4.24713,1.12814a3.85,3.85,0,0,1-.55285-1.53136,9.1055,9.1055,0,0,1-.23254-2.13636,5.83137,5.83137,0,0,1,2.356-5.02411,6.24961,6.24961,0,0,1,5.58976-.85746,16.82515,16.82515,0,0,1,7.66774,4.97626,34.994,34.994,0,0,1,6.46535,9.84652c-1.01681-.30671-1.98568-.60807-2.95779-.90523a26.56782,26.56782,0,0,0-5.03269-7.43106,14.0063,14.0063,0,0,0-6.14261-3.82059,4.284,4.284,0,0,0-3.83322.52006,3.93479,3.93479,0,0,0-1.61857,3.3483,12.819,12.819,0,0,0,.18688,2.13951,5.83789,5.83789,0,0,0,.554,1.52821c1.386.36719,2.81868.75139,4.24713,1.13664v2.39529c-1.42845-.38525-2.86111-.77049-4.24713-1.13453v24.25328c-.83106-.21966-1.66407-.44249-2.44947-.65268V588.34268C441.406,587.96909,439.97653,587.585,438.59051,587.21779Zm-9.88579-2.38575v-2.41869c3.60408.80021,7.25269,1.70552,10.90243,2.67763v2.39425c-1.43266-.37254-2.81868-.74929-4.2026-1.10377V610.6528q-1.24974-.258-2.49723-.518V585.77338C431.47887,585.4189,430.09171,585.1207,428.70472,584.832Zm-16.30224-3.3908v-2.41231c5.72773,1.18231,11.501,2.38575,17.27435,3.58927v2.41545c-1.15575-.24088-2.26259-.47229-3.37267-.70361v6.17872a5.08666,5.08666,0,0,1-1.52513,3.86836,3.949,3.949,0,0,1-3.69428.96256,7.6791,7.6791,0,0,1-1.98567-.953,53.29555,53.29555,0,0,0,3.83548,6.66049,51.29839,51.29839,0,0,0,4.84679,6.14269c-.50832.52638-1.01454,1.04749-1.47719,1.576a65.12373,65.12373,0,0,1-12.65363-20.61519c.73763-.28971,1.47736-.58687,2.26259-.8671a7.70787,7.70787,0,0,0,2.07911,3.5436,5.79936,5.79936,0,0,0,3.09252,1.82965,2.0015,2.0015,0,0,0,1.94-.56881,2.8155,2.8155,0,0,0,.7854-2.09927v-6.17654C419.97791,583.0215,416.1902,582.233,412.40248,581.44124Zm-20.2757-3.53194v-2.44194c7.066,1.04636,14.17762,2.29765,21.29234,3.77177v2.41651c-1.43169-.30145-2.81868-.5901-4.2026-.87875v24.46655c-.83317-.17189-1.66293-.346-2.494-.50832v-8.60373a6.4409,6.4409,0,0,1-2.40379,1.663,5.8043,5.8043,0,0,1-2.81561.20162,8.43508,8.43508,0,0,1-5.26491-2.945,8.10644,8.10644,0,0,1-2.17142-5.4751,6.32081,6.32081,0,0,1,2.17142-4.988,6.522,6.522,0,0,1,5.26491-1.49217,8.03545,8.03545,0,0,1,3.97135,2.061c-.41488.64742-.8309,1.29056-1.24594,1.93474a3.75737,3.75737,0,0,0-1.15462-.84588,5.46331,5.46331,0,0,0-1.57079-.44144,4.20393,4.20393,0,0,0-3.51064.94135,3.91393,3.91393,0,0,0-1.43169,3.204,4.86181,4.86181,0,0,0,1.43169,3.46505,6.27449,6.27449,0,0,0,3.51064,1.86884,3.98246,3.98246,0,0,0,2.81561-.62613,7.72456,7.72456,0,0,0,2.40379-2.55982V580.26857C401.828,579.36325,396.97584,578.632,392.12678,577.9093ZM365.109,591.37472a6.13962,6.13962,0,0,0,3.69639-.80864,7.19637,7.19637,0,0,0,2.76783-2.9811v-12.5814q-4.2234-.37409-8.44989-.75139a9.50525,9.50525,0,0,1,1.47946,2.81236,7.45811,7.45811,0,0,1,.50621,2.83682,5.49,5.49,0,0,1-1.66407,4.00415,7.25174,7.25174,0,0,1-4.29279,2.02171,6.61966,6.61966,0,0,0,1.98551,3.724A6.53883,6.53883,0,0,0,365.109,591.37472Zm-10.06943-17.83255v-2.46428c7.71341.6824,15.47442,1.37436,23.23349,2.32842v2.43351c-1.43169-.17084-2.86435-.364-4.25037-.538v24.803c-.83107-.069-1.661-.14428-2.44947-.22177v-8.47742a9.24033,9.24033,0,0,1-3.09252,2.13522,7.96144,7.96144,0,0,1-3.3717.56889,8.98357,8.98357,0,0,1-6.18827-3.45655,11.1077,11.1077,0,0,1-2.494-7.15092,7.42645,7.42645,0,0,0,4.572-.80021,3.07462,3.07462,0,0,0,1.6163-3.02038,7.63554,7.63554,0,0,0-.59853-2.73488,14.80723,14.80723,0,0,0-1.8477-2.95349C358.46016,573.83933,356.74832,573.695,355.03955,573.54217Zm-13.11628-.97211v-2.48444c4.71108.28865,9.422.66435,14.13309,1.07931v2.46428c-3.09268-.28015-6.14277-.55083-9.19076-.7705v8.76616a5.52124,5.52124,0,0,0,1.29372,3.62845,4.419,4.419,0,0,0,3.186,1.60893,4.27175,4.27175,0,0,0,2.95778-.82993,6.342,6.342,0,0,0,2.21709-2.79755v3.81743a5.42138,5.42138,0,0,1-2.21709,1.9941,6.139,6.139,0,0,1-2.95778.54767,7.05534,7.05534,0,0,1-4.89456-2.66492,8.46629,8.46629,0,0,1-2.07895-5.71914v-8.51678C343.54184,572.63589,342.70867,572.58812,341.92327,572.57006Zm-9.92709-.30136v-2.47279c3.60084.0966,7.24962.21117,10.8992.31942v2.48129c-1.43266-.04777-2.81965-.087-4.2026-.12631V597.545c-.83414-.02972-1.66407-.06048-2.494-.087V572.396C334.76612,572.35671,333.3801,572.308,331.99618,572.2687Zm-10.90243,14.26563a5.70841,5.70841,0,0,0,.9232-.02972,1.78644,1.78644,0,0,0,.55723-.20169c1.20028-.884,2.44526-1.75961,3.69331-2.64679V572.10627c-3.14029-.09546-6.28075-.18355-9.422-.20161v9.95154a4.72906,4.72906,0,0,0,1.24595,3.31008A4.05647,4.05647,0,0,0,321.09375,586.53433ZM310.51924,571.98V569.4892c7.482-.05943,14.964.11457,22.44484.32793v2.48233c-1.43168-.04882-2.81868-.087-4.20259-.12315v25.05034c-.83317-.03085-1.6631-.04882-2.494-.07538v-10.4631c-4.1571,3.36951-8.26626,6.84412-12.37882,10.45039-.50832-.73018-1.01665-1.46141-1.4772-2.18308,2.44834-2.08859,4.94233-4.16657,7.43633-6.2371a7.56518,7.56518,0,0,1-3.97346-2.54177,6.9721,6.9721,0,0,1-1.47719-4.3013V571.8866C313.10651,571.90466,311.813,571.94393,310.51924,571.98Zm-37.55,2.043v-2.5025c7.85137-.72272,15.74825-1.3,23.64529-1.59824V572.414c-1.42861.05093-2.8156.087-4.19952.13482v25.16807c-.83317.02971-1.6631.087-2.494.156V580.692c-3.23373.20169-6.46746.46379-9.65341.74929a2.72911,2.72911,0,0,0-1.94,1.177,4.64223,4.64223,0,0,0-.78524,2.67439,11.14927,11.14927,0,0,0,1.7086,5.59186,21.35754,21.35754,0,0,0,4.7587,5.54514q-.76248,1.0507-1.525,2.08754a24.75159,24.75159,0,0,1-5.45065-6.45045,13.44278,13.44278,0,0,1-1.98568-6.55223,7.43221,7.43221,0,0,1,1.56966-4.70785,5.04133,5.04133,0,0,1,3.64959-2.15336c3.18595-.28647,6.41968-.54225,9.65341-.73439v-5.265C284.2389,572.99142,278.60348,573.5029,272.96919,574.023ZM256.39,601.67232c-.50832-.6739-1.01664-1.33509-1.52513-2.01224,4.52421-4.088,9.09732-8.06245,13.67027-11.89155v3.04694C264.47055,594.32935,260.4069,597.93982,256.39,601.67232Zm-2.95665-25.54385v-2.512c6.74113-.8841,13.48663-1.53994,20.27553-2.16292v2.5004c-1.43169.12631-2.81868.261-4.2026.38525v25.29332c-.83317.0668-1.6631.14429-2.494.21117V574.57056c-2.078.18363-4.15693.37569-6.1873.59536v16.13139a2.27883,2.27883,0,0,1-.32566,1.25971,1.10852,1.10852,0,0,1-.92336.57836c-.60176.087-1.56966-.66224-2.90905-2.23287-1.33825-1.5495-2.03328-2.71367-2.03328-3.50117a1.56828,1.56828,0,0,1,.27691-.81827.9167.9167,0,0,1,.73973-.44573c.554-.07846,1.11008-.15919,1.7086-.23772a.88984.88984,0,0,0,.64743-.52954,1.55784,1.55784,0,0,0,.36938-.99227v-8.92324C256.71262,575.63821,255.04855,575.88864,253.43339,576.12847Zm-9.88256,1.51339v-2.50242c3.60084-.56038,7.25059-1.11648,10.8992-1.67581v2.51206c-1.43169.2229-2.86435.44468-4.25037.65584V602.0183c-.83107.12623-1.661.244-2.44623.35869V577.00407C246.32174,577.21734,244.93459,577.43709,243.55083,577.64186Zm-27.1114,4.98484v-2.5025q13.99286-3.00075,28.08027-5.13868v2.51205c-1.43169.21117-2.81868.42128-4.2026.63464v25.32093c-.83106.12623-1.66407.24089-2.494.3672v-16.6896c-1.98568.29716-3.97136.59852-5.96011.96256a8.37,8.37,0,0,1,1.48043,4.72582,8.06608,8.06608,0,0,1-1.61532,4.87974,5.87537,5.87537,0,0,1-3.83533,2.58954c-1.75427.364-3.601-.42346-5.49632-2.37619a25.62906,25.62906,0,0,1-4.66331-8.32674c.73763-.52111,1.47736-1.05065,2.26259-1.58877a23.30943,23.30943,0,0,0,3.78772,7.343c1.38391,1.71184,2.76994,2.42817,4.10932,2.15757a3.47011,3.47011,0,0,0,2.17126-1.49217,4.87551,4.87551,0,0,0,.83106-2.72533,7.96272,7.96272,0,0,0-.969-3.49267,14.491,14.491,0,0,0-2.77415-3.58918c3.55954-.674,7.11488-1.30011,10.67119-1.83815v-5.84229C230.66272,579.68162,223.55108,581.10481,216.43943,582.6267ZM178.93829,592.088v-2.48444c7.84814-2.17563,15.74825-4.36826,23.64513-6.4558v2.49934c-1.43153.33959-2.86435.69512-4.24827,1.08037v25.31138c-.833.22283-1.66293.4425-2.44833.64419V595.45433q-4.85058,1.33075-9.69891,2.64784a3.31546,3.31546,0,0,0-1.89548,1.51233,5.106,5.106,0,0,0-.82993,2.82824,9.89442,9.89442,0,0,0,1.70876,5.229,17.13193,17.13193,0,0,0,4.75546,4.64728c-.50832.78856-1.01341,1.56748-1.47622,2.338a17.57691,17.57691,0,0,1-5.45179-5.41883,11.01137,11.01137,0,0,1-1.98244-6.13946,8.79256,8.79256,0,0,1,1.523-4.93706,6.43232,6.43232,0,0,1,3.64862-2.82192q4.84573-1.326,9.69891-2.66485v-5.27349C190.20687,588.96881,184.57258,590.52681,178.93829,592.088Zm-17.73814,5.66822V595.2834c7.71341-2.61812,15.42778-5.03358,23.18572-7.1901v2.494c-1.98568.538-3.92569,1.07615-5.86359,1.61524v7.99032c-2.91213.80556-5.821,1.70228-8.68438,2.64687a5.06409,5.06409,0,0,0-2.77091,2.52152,8.35153,8.35153,0,0,0-1.20028,4.31094,6.78553,6.78553,0,0,0,2.494,5.457,5.34326,5.34326,0,0,0,5.45065,1.04959,8.275,8.275,0,0,0,4.15483-3.15834,8.64849,8.64849,0,0,0,1.802-5.1684,5.9954,5.9954,0,0,0-.78539-2.92491,6.2565,6.2565,0,0,0-2.21693-2.31886c.64629-.73439,1.29372-1.46562,1.98568-2.19579a7.65248,7.65248,0,0,1,2.53853,2.88775,8.15952,8.15952,0,0,1,.97211,3.88957,12.176,12.176,0,0,1-2.494,7.28354,11.40045,11.40045,0,0,1-5.95687,4.45838,7.217,7.217,0,0,1-7.15941-1.42635,8.58127,8.58127,0,0,1-3.23373-7.0246,11.9167,11.9167,0,0,1,1.84674-6.44932,8.89317,8.89317,0,0,1,4.57295-3.95645c2.03344-.68022,4.10932-1.32659,6.19038-1.95272V592.885C171.086,594.40789,166.14362,596.08046,161.20015,597.75619Zm-3.97021,15.59222a8.16989,8.16989,0,0,0,2.26161-1.18222,11.95565,11.95565,0,0,0,1.98568-1.87743c-2.99924-2.37724-6.00156-4.74711-8.95822-7.12435v7.10314a3.11584,3.11584,0,0,0,1.386,2.80921A3.67186,3.67186,0,0,0,157.22994,613.34841Zm-9.74459-10.9332v-2.45473c4.89456-1.66626,9.78928-3.33033,14.73258-5.01456v2.47279c-2.91.98061-5.821,1.96438-8.68227,2.93657,3.047,2.44518,6.095,4.87974,9.14509,7.34289v4.13054a24.239,24.239,0,0,1-2.86338,2.80063,9.396,9.396,0,0,1-2.58743,1.4529,5.51648,5.51648,0,0,1-5.08128-.45424,5.15975,5.15975,0,0,1-2.07911-4.55173V601.528C149.19412,601.82932,148.31641,602.12655,147.48535,602.41521Zm-9.93032,3.84811v-2.443c3.601-1.45291,7.25058-2.90581,10.89936-4.18779v2.44623c-1.43169.49027-2.81885.99017-4.20277,1.49209V628.4111q-1.24489.47755-2.494.953V604.5812C140.3261,605.14693,138.93894,605.70723,137.555,606.26332Zm-14.82489,5.95906v-2.41546c5.26491-2.1268,10.52885-4.25353,15.84169-6.392v2.44517C133.259,607.98682,127.99505,610.10513,122.73014,612.22238Zm11.59116,19.99967a11.67326,11.67326,0,0,1-4.75659-4.33207,10.96646,10.96646,0,0,1-1.66293-5.86885,7.86,7.86,0,0,1,.50832-2.62986,12.543,12.543,0,0,1,1.47719-2.75189c-2.079.81827-4.15483,1.645-6.18828,2.45473V616.3985q9.28242-3.69642,18.5671-7.40021v2.73382c-2.494.98062-4.988,1.9771-7.43633,2.94289a7.21239,7.21239,0,0,0-3.18595,2.62031,6.42334,6.42334,0,0,0-1.29372,3.75371,9.774,9.774,0,0,0,1.47719,5.20451,10.41928,10.41928,0,0,0,4.01912,3.75476C135.3381,630.748,134.82978,631.49091,134.3213,632.22205Zm-21.52148-15.71529v-2.407c1.387-.64629,2.8156-1.32019,4.24713-1.97288a1.92618,1.92618,0,0,1-.55285-1.15575,7.59791,7.59791,0,0,1-.18364-2.00049,11.45832,11.45832,0,0,1,2.30728-6.66373,12.80656,12.80656,0,0,1,5.58976-4.66542,10.03412,10.03412,0,0,1,7.66757-.18355,13.35924,13.35924,0,0,1,6.46535,5.50482c-1.0168.4033-1.98567.79811-2.95665,1.195a9.99145,9.99145,0,0,0-5.03366-4.13053,8.90536,8.90536,0,0,0-9.976,3.43858,7.75089,7.75089,0,0,0-1.61841,4.46372,7.28284,7.28284,0,0,0,.23238,1.992,2.35991,2.35991,0,0,0,.50832,1.18546c1.38716-.55083,2.81869-1.13769,4.25038-1.70552V611.817c-1.43169.57739-2.86322,1.15469-4.25038,1.70552v24.39757c-.8309.31627-1.66406.66435-2.44946,1.01033v-24.388C115.61542,615.19506,114.18681,615.85941,112.79982,616.50676ZM89.33719,627.43041v-2.34963q12.19389-5.71814,24.47927-11.45327v2.407c-1.802.83632-3.55631,1.65451-5.31268,2.46323a4.63574,4.63574,0,0,1,1.48043,3.58926,9.55687,9.55687,0,0,1-.6505,3.48416,10.1242,10.1242,0,0,1-1.799,2.9535,2.54707,2.54707,0,0,1,2.494,1.20352,6.00878,6.00878,0,0,1,.969,3.61889,11.35848,11.35848,0,0,1-1.94,6.10448,11.68277,11.68277,0,0,1-4.75659,4.35012,7.013,7.013,0,0,1-7.43633-1.01988,14.2461,14.2461,0,0,1-3.41736-3.61048,32.05147,32.05147,0,0,1-2.81658-5.53558c.692-.62508,1.387-1.25972,2.079-1.89435a28.03508,28.03508,0,0,0,2.494,4.96678,13.24365,13.24365,0,0,0,2.95455,3.33875,5.5417,5.5417,0,0,0,6.14277,1.10692,6.603,6.603,0,0,0,2.95665-2.7731,6.97673,6.97673,0,0,0,1.246-3.90868,4.25632,4.25632,0,0,0-1.15575-3.25178,2.439,2.439,0,0,0-2.8156-.25894c-1.66294.75884-3.327,1.51978-4.94233,2.251-.37035-.70151-.692-1.43274-1.01665-2.16292,1.802-.831,3.60408-1.65451,5.45066-2.50355a5.86959,5.86959,0,0,0,2.494-2.21376,5.68863,5.68863,0,0,0,1.01665-3.12021,3.663,3.663,0,0,0-.55286-1.922,4.204,4.204,0,0,0-1.7086-1.282Q97.304,623.71868,89.33719,627.43041Z" transform="translate(-11.16129 -52.41935)"/><rect class="ac" width="1268.83871" height="695.16129"/></svg>